<svg width="350" height="420" viewBox="60 200 500 420" fill="none" xmlns="http://www.w3.org/2000/svg" >
<g filter="url(#filter0_d_2316_510)">
<rect x="79" y="79.0781" width="340" height="258.984" rx="30" fill="white" shape-rendering="crispEdges"/>
<g clip-path="url(#clip0_2316_510)">
<path d="M151.88 119.078H126.12C117.769 119.078 111 125.848 111 134.198V159.958C111 168.309 117.769 175.078 126.12 175.078H151.88C160.231 175.078 167 168.309 167 159.958V134.198C167 125.848 160.231 119.078 151.88 119.078Z" fill="#9D0AFF"/>
<path fill-rule="evenodd" clip-rule="evenodd" d="M148.478 134.823C150.634 134.207 152.627 136.2 152.011 138.357L146.568 157.41C145.66 160.586 141.418 161.183 139.669 158.38L135.862 152.276C135.532 151.748 135.087 151.302 134.558 150.973L128.454 147.165C125.651 145.417 126.248 141.174 129.424 140.267L148.478 134.823ZM149.297 137.437C149.283 137.433 149.262 137.43 149.226 137.44L130.172 142.884C129.264 143.144 129.094 144.356 129.895 144.855L135.999 148.663C136.879 149.212 137.622 149.955 138.172 150.835L141.979 156.94C142.479 157.74 143.691 157.57 143.95 156.662L149.394 137.609C149.404 137.572 149.401 137.551 149.397 137.537C149.392 137.519 149.38 137.496 149.359 137.475C149.338 137.454 149.316 137.442 149.297 137.437Z" fill="#FFFAFF"/>
<path fill-rule="evenodd" clip-rule="evenodd" d="M142.781 144.053C143.313 144.585 143.313 145.447 142.781 145.978L137.969 150.791C137.437 151.322 136.576 151.322 136.044 150.791C135.513 150.259 135.513 149.397 136.044 148.866L140.856 144.053C141.388 143.522 142.25 143.522 142.781 144.053Z" fill="#FFFAFF"/>
</g>
<path d="M120.35 220.342C119.177 220.342 118.091 220.129 117.094 219.704C116.097 219.279 115.224 218.685 114.476 217.922C113.728 217.159 113.141 216.265 112.716 215.238C112.305 214.211 112.1 213.089 112.1 211.872C112.1 210.655 112.298 209.533 112.694 208.506C113.105 207.465 113.677 206.57 114.41 205.822C115.158 205.059 116.031 204.473 117.028 204.062C118.025 203.637 119.111 203.424 120.284 203.424C121.457 203.424 122.506 203.622 123.43 204.018C124.369 204.414 125.161 204.942 125.806 205.602C126.451 206.247 126.913 206.959 127.192 207.736L124.53 209.012C124.222 208.161 123.701 207.472 122.968 206.944C122.235 206.416 121.34 206.152 120.284 206.152C119.257 206.152 118.348 206.394 117.556 206.878C116.779 207.362 116.17 208.029 115.73 208.88C115.305 209.731 115.092 210.728 115.092 211.872C115.092 213.016 115.312 214.021 115.752 214.886C116.207 215.737 116.83 216.404 117.622 216.888C118.414 217.372 119.323 217.614 120.35 217.614C121.186 217.614 121.956 217.453 122.66 217.13C123.364 216.793 123.929 216.323 124.354 215.722C124.779 215.106 124.992 214.38 124.992 213.544V212.29L126.356 213.478H120.284V210.948H127.984V212.598C127.984 213.859 127.771 214.974 127.346 215.942C126.921 216.91 126.341 217.724 125.608 218.384C124.889 219.029 124.075 219.521 123.166 219.858C122.257 220.181 121.318 220.342 120.35 220.342ZM130.11 220.078V203.424H132.992V220.078H130.11ZM141.505 220.342C140.331 220.342 139.261 220.071 138.293 219.528C137.339 218.985 136.577 218.245 136.005 217.306C135.447 216.367 135.169 215.297 135.169 214.094C135.169 212.891 135.447 211.821 136.005 210.882C136.577 209.943 137.339 209.203 138.293 208.66C139.246 208.117 140.317 207.846 141.505 207.846C142.678 207.846 143.741 208.117 144.695 208.66C145.648 209.203 146.403 209.943 146.961 210.882C147.533 211.806 147.819 212.877 147.819 214.094C147.819 215.297 147.533 216.367 146.961 217.306C146.389 218.245 145.626 218.985 144.673 219.528C143.719 220.071 142.663 220.342 141.505 220.342ZM141.505 217.702C142.15 217.702 142.715 217.548 143.199 217.24C143.697 216.932 144.086 216.507 144.365 215.964C144.658 215.407 144.805 214.783 144.805 214.094C144.805 213.39 144.658 212.774 144.365 212.246C144.086 211.703 143.697 211.278 143.199 210.97C142.715 210.647 142.15 210.486 141.505 210.486C140.845 210.486 140.265 210.647 139.767 210.97C139.268 211.278 138.872 211.703 138.579 212.246C138.3 212.774 138.161 213.39 138.161 214.094C138.161 214.783 138.3 215.407 138.579 215.964C138.872 216.507 139.268 216.932 139.767 217.24C140.265 217.548 140.845 217.702 141.505 217.702ZM156.538 220.342C155.673 220.342 154.873 220.173 154.14 219.836C153.421 219.484 152.849 218.985 152.424 218.34L152.71 217.768V220.078H150.004V203.424H152.886V210.486L152.446 209.892C152.857 209.247 153.414 208.748 154.118 208.396C154.822 208.029 155.636 207.846 156.56 207.846C157.689 207.846 158.709 208.125 159.618 208.682C160.527 209.239 161.246 209.987 161.774 210.926C162.317 211.865 162.588 212.921 162.588 214.094C162.588 215.253 162.324 216.309 161.796 217.262C161.268 218.215 160.549 218.971 159.64 219.528C158.731 220.071 157.697 220.342 156.538 220.342ZM156.208 217.702C156.868 217.702 157.455 217.548 157.968 217.24C158.481 216.932 158.877 216.507 159.156 215.964C159.449 215.421 159.596 214.798 159.596 214.094C159.596 213.39 159.449 212.774 159.156 212.246C158.877 211.703 158.481 211.278 157.968 210.97C157.455 210.647 156.868 210.486 156.208 210.486C155.577 210.486 155.005 210.64 154.492 210.948C153.993 211.256 153.597 211.689 153.304 212.246C153.025 212.789 152.886 213.405 152.886 214.094C152.886 214.798 153.025 215.421 153.304 215.964C153.597 216.507 153.993 216.932 154.492 217.24C155.005 217.548 155.577 217.702 156.208 217.702ZM168.415 220.342C167.579 220.342 166.853 220.203 166.237 219.924C165.621 219.645 165.145 219.249 164.807 218.736C164.47 218.208 164.301 217.599 164.301 216.91C164.301 216.25 164.448 215.663 164.741 215.15C165.035 214.622 165.489 214.182 166.105 213.83C166.721 213.478 167.499 213.229 168.437 213.082L172.353 212.444V214.644L168.987 215.216C168.415 215.319 167.99 215.502 167.711 215.766C167.433 216.03 167.293 216.375 167.293 216.8C167.293 217.211 167.447 217.541 167.755 217.79C168.078 218.025 168.474 218.142 168.943 218.142C169.545 218.142 170.073 218.017 170.527 217.768C170.997 217.504 171.356 217.145 171.605 216.69C171.869 216.235 172.001 215.737 172.001 215.194V212.114C172.001 211.601 171.796 211.175 171.385 210.838C170.989 210.486 170.461 210.31 169.801 210.31C169.185 210.31 168.635 210.479 168.151 210.816C167.682 211.139 167.337 211.571 167.117 212.114L164.763 210.97C164.998 210.339 165.365 209.797 165.863 209.342C166.377 208.873 166.978 208.506 167.667 208.242C168.357 207.978 169.105 207.846 169.911 207.846C170.894 207.846 171.759 208.029 172.507 208.396C173.255 208.748 173.835 209.247 174.245 209.892C174.671 210.523 174.883 211.263 174.883 212.114V220.078H172.155V218.032L172.771 217.988C172.463 218.501 172.097 218.934 171.671 219.286C171.246 219.623 170.762 219.887 170.219 220.078C169.677 220.254 169.075 220.342 168.415 220.342ZM177.547 220.078V203.424H180.429V220.078H177.547ZM192.764 220.342C191.576 220.342 190.506 220.071 189.552 219.528C188.614 218.971 187.873 218.223 187.33 217.284C186.788 216.331 186.516 215.26 186.516 214.072C186.516 212.884 186.788 211.821 187.33 210.882C187.873 209.943 188.614 209.203 189.552 208.66C190.506 208.117 191.576 207.846 192.764 207.846C193.615 207.846 194.407 208 195.14 208.308C195.874 208.601 196.504 209.012 197.032 209.54C197.575 210.053 197.964 210.669 198.198 211.388L195.668 212.488C195.448 211.887 195.074 211.403 194.546 211.036C194.033 210.669 193.439 210.486 192.764 210.486C192.134 210.486 191.569 210.64 191.07 210.948C190.586 211.256 190.205 211.681 189.926 212.224C189.648 212.767 189.508 213.39 189.508 214.094C189.508 214.798 189.648 215.421 189.926 215.964C190.205 216.507 190.586 216.932 191.07 217.24C191.569 217.548 192.134 217.702 192.764 217.702C193.454 217.702 194.055 217.519 194.568 217.152C195.082 216.785 195.448 216.294 195.668 215.678L198.198 216.822C197.964 217.497 197.582 218.105 197.054 218.648C196.526 219.176 195.896 219.594 195.162 219.902C194.429 220.195 193.63 220.342 192.764 220.342ZM206.237 220.342C205.064 220.342 203.993 220.071 203.025 219.528C202.072 218.985 201.309 218.245 200.737 217.306C200.18 216.367 199.901 215.297 199.901 214.094C199.901 212.891 200.18 211.821 200.737 210.882C201.309 209.943 202.072 209.203 203.025 208.66C203.978 208.117 205.049 207.846 206.237 207.846C207.41 207.846 208.474 208.117 209.427 208.66C210.38 209.203 211.136 209.943 211.693 210.882C212.265 211.806 212.551 212.877 212.551 214.094C212.551 215.297 212.265 216.367 211.693 217.306C211.121 218.245 210.358 218.985 209.405 219.528C208.452 220.071 207.396 220.342 206.237 220.342ZM206.237 217.702C206.882 217.702 207.447 217.548 207.931 217.24C208.43 216.932 208.818 216.507 209.097 215.964C209.39 215.407 209.537 214.783 209.537 214.094C209.537 213.39 209.39 212.774 209.097 212.246C208.818 211.703 208.43 211.278 207.931 210.97C207.447 210.647 206.882 210.486 206.237 210.486C205.577 210.486 204.998 210.647 204.499 210.97C204 211.278 203.604 211.703 203.311 212.246C203.032 212.774 202.893 213.39 202.893 214.094C202.893 214.783 203.032 215.407 203.311 215.964C203.604 216.507 204 216.932 204.499 217.24C204.998 217.548 205.577 217.702 206.237 217.702ZM214.737 220.078V208.11H217.443V210.882L217.135 210.42C217.355 209.555 217.795 208.909 218.455 208.484C219.115 208.059 219.892 207.846 220.787 207.846C221.769 207.846 222.635 208.103 223.383 208.616C224.131 209.129 224.615 209.804 224.835 210.64L224.021 210.706C224.387 209.753 224.937 209.041 225.671 208.572C226.404 208.088 227.247 207.846 228.201 207.846C229.051 207.846 229.807 208.037 230.467 208.418C231.141 208.799 231.669 209.335 232.051 210.024C232.432 210.699 232.623 211.483 232.623 212.378V220.078H229.741V213.06C229.741 212.532 229.645 212.077 229.455 211.696C229.264 211.315 229 211.021 228.663 210.816C228.325 210.596 227.915 210.486 227.431 210.486C226.976 210.486 226.573 210.596 226.221 210.816C225.869 211.021 225.597 211.315 225.407 211.696C225.216 212.077 225.121 212.532 225.121 213.06V220.078H222.239V213.06C222.239 212.532 222.143 212.077 221.953 211.696C221.762 211.315 221.491 211.021 221.139 210.816C220.801 210.596 220.398 210.486 219.929 210.486C219.474 210.486 219.071 210.596 218.719 210.816C218.367 211.021 218.095 211.315 217.905 211.696C217.714 212.077 217.619 212.532 217.619 213.06V220.078H214.737ZM235.061 220.078V208.11H237.767V210.882L237.459 210.42C237.679 209.555 238.119 208.909 238.779 208.484C239.439 208.059 240.216 207.846 241.111 207.846C242.093 207.846 242.959 208.103 243.707 208.616C244.455 209.129 244.939 209.804 245.159 210.64L244.345 210.706C244.711 209.753 245.261 209.041 245.995 208.572C246.728 208.088 247.571 207.846 248.525 207.846C249.375 207.846 250.131 208.037 250.791 208.418C251.465 208.799 251.993 209.335 252.375 210.024C252.756 210.699 252.947 211.483 252.947 212.378V220.078H250.065V213.06C250.065 212.532 249.969 212.077 249.779 211.696C249.588 211.315 249.324 211.021 248.987 210.816C248.649 210.596 248.239 210.486 247.755 210.486C247.3 210.486 246.897 210.596 246.545 210.816C246.193 211.021 245.921 211.315 245.731 211.696C245.54 212.077 245.445 212.532 245.445 213.06V220.078H242.563V213.06C242.563 212.532 242.467 212.077 242.277 211.696C242.086 211.315 241.815 211.021 241.463 210.816C241.125 210.596 240.722 210.486 240.253 210.486C239.798 210.486 239.395 210.596 239.043 210.816C238.691 211.021 238.419 211.315 238.229 211.696C238.038 212.077 237.943 212.532 237.943 213.06V220.078H235.061ZM259.653 220.342C258.729 220.342 257.922 220.137 257.233 219.726C256.558 219.315 256.038 218.743 255.671 218.01C255.319 217.277 255.143 216.419 255.143 215.436V208.11H258.025V215.194C258.025 215.693 258.12 216.133 258.311 216.514C258.516 216.881 258.802 217.174 259.169 217.394C259.55 217.599 259.976 217.702 260.445 217.702C260.914 217.702 261.332 217.599 261.699 217.394C262.066 217.174 262.352 216.873 262.557 216.492C262.762 216.111 262.865 215.656 262.865 215.128V208.11H265.747V220.078H263.019V217.724L263.261 218.142C262.982 218.875 262.52 219.425 261.875 219.792C261.244 220.159 260.504 220.342 259.653 220.342ZM268.426 220.078V208.11H271.132V210.464L270.912 210.046C271.191 209.327 271.645 208.785 272.276 208.418C272.921 208.037 273.669 207.846 274.52 207.846C275.4 207.846 276.177 208.037 276.852 208.418C277.541 208.799 278.077 209.335 278.458 210.024C278.839 210.699 279.03 211.483 279.03 212.378V220.078H276.148V213.06C276.148 212.532 276.045 212.077 275.84 211.696C275.635 211.315 275.349 211.021 274.982 210.816C274.63 210.596 274.212 210.486 273.728 210.486C273.259 210.486 272.841 210.596 272.474 210.816C272.107 211.021 271.821 211.315 271.616 211.696C271.411 212.077 271.308 212.532 271.308 213.06V220.078H268.426ZM281.467 220.078V208.11H284.349V220.078H281.467ZM281.467 206.768V203.688H284.349V206.768H281.467ZM292.466 220.21C291.117 220.21 290.068 219.843 289.32 219.11C288.587 218.362 288.22 217.313 288.22 215.964V210.684H286.152V208.11H286.372C286.959 208.11 287.413 207.956 287.736 207.648C288.059 207.34 288.22 206.893 288.22 206.306V205.382H291.102V208.11H293.852V210.684H291.102V215.81C291.102 216.206 291.168 216.543 291.3 216.822C291.447 217.101 291.667 217.313 291.96 217.46C292.268 217.607 292.657 217.68 293.126 217.68C293.229 217.68 293.346 217.673 293.478 217.658C293.625 217.643 293.764 217.629 293.896 217.614V220.078C293.691 220.107 293.456 220.137 293.192 220.166C292.928 220.195 292.686 220.21 292.466 220.21ZM297.55 224.94C297.227 224.94 296.912 224.911 296.604 224.852C296.296 224.808 296.017 224.727 295.768 224.61V222.19C295.959 222.234 296.186 222.278 296.45 222.322C296.729 222.366 296.985 222.388 297.22 222.388C297.88 222.388 298.357 222.234 298.65 221.926C298.958 221.618 299.229 221.215 299.464 220.716L300.256 218.868L300.212 221.288L294.998 208.11H298.1L301.752 217.834H300.652L304.282 208.11H307.406L302.192 221.288C301.884 222.065 301.51 222.725 301.07 223.268C300.63 223.811 300.117 224.221 299.53 224.5C298.958 224.793 298.298 224.94 297.55 224.94Z" fill="#151531"/>
<path d="M112.199 250.672V239.763H116.194C116.968 239.763 117.609 239.891 118.116 240.146C118.624 240.398 119.004 240.741 119.256 241.174C119.509 241.604 119.635 242.089 119.635 242.629C119.635 243.083 119.551 243.467 119.384 243.779C119.217 244.088 118.994 244.337 118.713 244.525C118.436 244.71 118.131 244.844 117.797 244.93V245.036C118.159 245.054 118.512 245.171 118.857 245.388C119.205 245.601 119.493 245.904 119.72 246.299C119.947 246.693 120.061 247.172 120.061 247.737C120.061 248.294 119.929 248.795 119.667 249.239C119.407 249.679 119.006 250.029 118.463 250.288C117.919 250.544 117.225 250.672 116.38 250.672H112.199ZM113.844 249.26H116.22C117.009 249.26 117.573 249.108 117.914 248.802C118.255 248.497 118.425 248.115 118.425 247.657C118.425 247.312 118.338 246.996 118.164 246.709C117.99 246.421 117.742 246.192 117.419 246.022C117.099 245.851 116.719 245.766 116.279 245.766H113.844V249.26ZM113.844 244.482H116.05C116.419 244.482 116.751 244.411 117.046 244.269C117.344 244.127 117.58 243.928 117.754 243.673C117.932 243.413 118.021 243.108 118.021 242.756C118.021 242.305 117.863 241.927 117.547 241.622C117.23 241.316 116.746 241.164 116.092 241.164H113.844V244.482ZM121.885 250.672V242.49H123.478V250.672H121.885ZM122.689 241.228C122.412 241.228 122.175 241.135 121.976 240.951C121.78 240.762 121.683 240.539 121.683 240.279C121.683 240.017 121.78 239.793 121.976 239.608C122.175 239.42 122.412 239.326 122.689 239.326C122.966 239.326 123.203 239.42 123.398 239.608C123.597 239.793 123.696 240.017 123.696 240.279C123.696 240.539 123.597 240.762 123.398 240.951C123.203 241.135 122.966 241.228 122.689 241.228ZM125.748 250.672V239.763H127.341V243.816H127.437C127.529 243.646 127.662 243.449 127.836 243.225C128.01 243.001 128.252 242.806 128.561 242.639C128.87 242.469 129.278 242.384 129.786 242.384C130.446 242.384 131.036 242.55 131.554 242.884C132.073 243.218 132.479 243.699 132.774 244.328C133.073 244.956 133.222 245.713 133.222 246.597C133.222 247.481 133.074 248.239 132.78 248.871C132.485 249.5 132.08 249.985 131.565 250.326C131.05 250.663 130.462 250.832 129.802 250.832C129.305 250.832 128.898 250.748 128.582 250.581C128.27 250.414 128.025 250.219 127.847 249.995C127.669 249.772 127.533 249.573 127.437 249.399H127.304V250.672H125.748ZM127.309 246.581C127.309 247.156 127.392 247.661 127.559 248.094C127.726 248.527 127.968 248.866 128.284 249.111C128.6 249.353 128.987 249.473 129.445 249.473C129.921 249.473 130.319 249.347 130.638 249.095C130.958 248.839 131.199 248.493 131.363 248.056C131.53 247.62 131.613 247.128 131.613 246.581C131.613 246.041 131.531 245.556 131.368 245.127C131.208 244.697 130.967 244.358 130.644 244.109C130.324 243.861 129.924 243.737 129.445 243.737C128.983 243.737 128.593 243.855 128.273 244.093C127.957 244.331 127.717 244.663 127.554 245.089C127.391 245.516 127.309 246.013 127.309 246.581ZM138.536 250.837C137.73 250.837 137.036 250.665 136.454 250.32C135.875 249.972 135.427 249.484 135.111 248.855C134.799 248.223 134.643 247.483 134.643 246.634C134.643 245.796 134.799 245.058 135.111 244.418C135.427 243.779 135.868 243.28 136.432 242.922C137.001 242.563 137.665 242.384 138.425 242.384C138.886 242.384 139.334 242.46 139.767 242.613C140.2 242.765 140.589 243.005 140.933 243.332C141.278 243.658 141.55 244.083 141.748 244.605C141.947 245.123 142.047 245.754 142.047 246.496V247.06H135.543V245.867H140.486C140.486 245.448 140.401 245.077 140.23 244.754C140.06 244.427 139.82 244.17 139.511 243.982C139.206 243.793 138.847 243.699 138.435 243.699C137.988 243.699 137.597 243.809 137.263 244.029C136.933 244.246 136.677 244.53 136.496 244.882C136.319 245.23 136.23 245.608 136.23 246.016V246.949C136.23 247.495 136.326 247.961 136.518 248.344C136.713 248.728 136.985 249.021 137.333 249.223C137.681 249.422 138.087 249.521 138.552 249.521C138.854 249.521 139.129 249.479 139.378 249.393C139.627 249.305 139.841 249.173 140.023 248.999C140.204 248.825 140.342 248.61 140.438 248.355L141.945 248.626C141.825 249.07 141.608 249.459 141.296 249.793C140.987 250.123 140.598 250.381 140.129 250.565C139.664 250.746 139.133 250.837 138.536 250.837ZM145.407 245.814V250.672H143.814V242.49H145.343V243.822H145.444C145.632 243.388 145.927 243.04 146.328 242.778C146.733 242.515 147.242 242.384 147.857 242.384C148.414 242.384 148.903 242.501 149.322 242.735C149.741 242.966 150.066 243.31 150.296 243.768C150.527 244.227 150.643 244.793 150.643 245.468V250.672H149.05V245.659C149.05 245.066 148.896 244.603 148.587 244.269C148.278 243.932 147.853 243.763 147.313 243.763C146.944 243.763 146.616 243.843 146.328 244.003C146.044 244.163 145.818 244.397 145.652 244.706C145.488 245.011 145.407 245.381 145.407 245.814ZM155.842 250.832C155.181 250.832 154.592 250.663 154.073 250.326C153.558 249.985 153.153 249.5 152.859 248.871C152.567 248.239 152.422 247.481 152.422 246.597C152.422 245.713 152.569 244.956 152.864 244.328C153.162 243.699 153.571 243.218 154.089 242.884C154.608 242.55 155.195 242.384 155.852 242.384C156.36 242.384 156.768 242.469 157.077 242.639C157.39 242.806 157.631 243.001 157.802 243.225C157.976 243.449 158.111 243.646 158.207 243.816H158.302V239.763H159.895V250.672H158.34V249.399H158.207C158.111 249.573 157.972 249.772 157.791 249.995C157.614 250.219 157.369 250.414 157.056 250.581C156.744 250.748 156.339 250.832 155.842 250.832ZM156.193 249.473C156.651 249.473 157.038 249.353 157.354 249.111C157.674 248.866 157.915 248.527 158.079 248.094C158.246 247.661 158.329 247.156 158.329 246.581C158.329 246.013 158.247 245.516 158.084 245.089C157.921 244.663 157.681 244.331 157.365 244.093C157.049 243.855 156.658 243.737 156.193 243.737C155.714 243.737 155.314 243.861 154.995 244.109C154.675 244.358 154.434 244.697 154.27 245.127C154.11 245.556 154.03 246.041 154.03 246.581C154.03 247.128 154.112 247.62 154.275 248.056C154.439 248.493 154.68 248.839 155 249.095C155.323 249.347 155.721 249.473 156.193 249.473ZM167.351 247.279V242.49H168.949V250.672H167.383V249.255H167.298C167.11 249.692 166.808 250.056 166.392 250.347C165.98 250.635 165.467 250.778 164.853 250.778C164.327 250.778 163.862 250.663 163.457 250.432C163.056 250.198 162.74 249.852 162.509 249.393C162.282 248.935 162.168 248.369 162.168 247.694V242.49H163.761V247.502C163.761 248.06 163.915 248.504 164.224 248.834C164.533 249.164 164.935 249.33 165.428 249.33C165.727 249.33 166.023 249.255 166.318 249.106C166.616 248.957 166.863 248.731 167.058 248.429C167.257 248.127 167.355 247.744 167.351 247.279ZM171.089 250.672V242.49H172.618V243.822H172.719C172.89 243.371 173.168 243.019 173.555 242.767C173.943 242.511 174.406 242.384 174.946 242.384C175.493 242.384 175.951 242.511 176.32 242.767C176.693 243.023 176.968 243.374 177.146 243.822H177.231C177.426 243.385 177.737 243.037 178.163 242.778C178.589 242.515 179.097 242.384 179.687 242.384C180.429 242.384 181.034 242.616 181.503 243.081C181.975 243.547 182.211 244.248 182.211 245.185V250.672H180.619V245.335C180.619 244.781 180.468 244.379 180.166 244.131C179.864 243.882 179.504 243.758 179.085 243.758C178.566 243.758 178.163 243.918 177.875 244.237C177.588 244.553 177.444 244.96 177.444 245.457V250.672H175.857V245.233C175.857 244.789 175.718 244.433 175.441 244.163C175.164 243.893 174.804 243.758 174.36 243.758C174.058 243.758 173.779 243.838 173.524 243.998C173.271 244.154 173.067 244.372 172.911 244.653C172.758 244.933 172.682 245.258 172.682 245.627V250.672H171.089ZM192.21 242.49V243.768H187.586V242.49H192.21ZM188.854 250.672V241.542C188.854 241.031 188.966 240.606 189.189 240.269C189.413 239.928 189.71 239.674 190.079 239.507C190.448 239.337 190.85 239.251 191.283 239.251C191.602 239.251 191.876 239.278 192.103 239.331C192.33 239.381 192.499 239.427 192.609 239.47L192.236 240.759C192.162 240.738 192.066 240.713 191.949 240.684C191.831 240.652 191.689 240.636 191.522 240.636C191.135 240.636 190.858 240.732 190.691 240.924C190.528 241.116 190.446 241.393 190.446 241.755V250.672H188.854ZM197.057 250.837C196.251 250.837 195.557 250.665 194.974 250.32C194.395 249.972 193.948 249.484 193.632 248.855C193.319 248.223 193.163 247.483 193.163 246.634C193.163 245.796 193.319 245.058 193.632 244.418C193.948 243.779 194.388 243.28 194.953 242.922C195.521 242.563 196.185 242.384 196.945 242.384C197.407 242.384 197.854 242.46 198.287 242.613C198.721 242.765 199.109 243.005 199.454 243.332C199.798 243.658 200.07 244.083 200.269 244.605C200.468 245.123 200.567 245.754 200.567 246.496V247.06H194.063V245.867H199.006C199.006 245.448 198.921 245.077 198.751 244.754C198.58 244.427 198.341 244.17 198.032 243.982C197.726 243.793 197.368 243.699 196.956 243.699C196.508 243.699 196.118 243.809 195.784 244.029C195.454 244.246 195.198 244.53 195.017 244.882C194.839 245.23 194.75 245.608 194.75 246.016V246.949C194.75 247.495 194.846 247.961 195.038 248.344C195.233 248.728 195.505 249.021 195.853 249.223C196.201 249.422 196.608 249.521 197.073 249.521C197.375 249.521 197.65 249.479 197.899 249.393C198.147 249.305 198.362 249.173 198.543 248.999C198.724 248.825 198.863 248.61 198.959 248.355L200.466 248.626C200.345 249.07 200.129 249.459 199.816 249.793C199.507 250.123 199.118 250.381 198.65 250.565C198.184 250.746 197.653 250.837 197.057 250.837ZM207.517 247.279V242.49H209.115V250.672H207.549V249.255H207.464C207.276 249.692 206.974 250.056 206.558 250.347C206.146 250.635 205.633 250.778 205.019 250.778C204.493 250.778 204.028 250.663 203.623 250.432C203.222 250.198 202.906 249.852 202.675 249.393C202.448 248.935 202.334 248.369 202.334 247.694V242.49H203.927V247.502C203.927 248.06 204.081 248.504 204.39 248.834C204.699 249.164 205.101 249.33 205.594 249.33C205.893 249.33 206.189 249.255 206.484 249.106C206.782 248.957 207.029 248.731 207.224 248.429C207.423 248.127 207.521 247.744 207.517 247.279ZM214.686 253.911C214.036 253.911 213.476 253.825 213.008 253.655C212.543 253.484 212.163 253.259 211.868 252.978C211.573 252.698 211.353 252.391 211.207 252.057L212.576 251.492C212.672 251.648 212.8 251.814 212.96 251.988C213.123 252.165 213.343 252.316 213.62 252.44C213.901 252.565 214.261 252.627 214.702 252.627C215.305 252.627 215.804 252.479 216.198 252.185C216.593 251.893 216.79 251.428 216.79 250.789V249.18H216.688C216.593 249.354 216.454 249.548 216.273 249.761C216.095 249.974 215.85 250.159 215.538 250.315C215.225 250.471 214.819 250.549 214.318 250.549C213.672 250.549 213.089 250.398 212.571 250.097C212.056 249.791 211.648 249.342 211.346 248.749C211.047 248.152 210.898 247.419 210.898 246.549C210.898 245.679 211.046 244.933 211.34 244.312C211.639 243.69 212.047 243.214 212.566 242.884C213.084 242.55 213.672 242.384 214.329 242.384C214.837 242.384 215.247 242.469 215.559 242.639C215.872 242.806 216.115 243.001 216.289 243.225C216.467 243.449 216.603 243.646 216.699 243.816H216.816V242.49H218.377V250.853C218.377 251.556 218.214 252.133 217.887 252.584C217.56 253.035 217.118 253.369 216.561 253.586C216.007 253.802 215.382 253.911 214.686 253.911ZM214.67 249.228C215.128 249.228 215.515 249.122 215.831 248.909C216.15 248.692 216.392 248.383 216.555 247.982C216.722 247.577 216.806 247.092 216.806 246.528C216.806 245.977 216.724 245.493 216.561 245.074C216.397 244.654 216.158 244.328 215.842 244.093C215.525 243.855 215.135 243.737 214.67 243.737C214.19 243.737 213.791 243.861 213.471 244.109C213.152 244.354 212.91 244.688 212.747 245.111C212.587 245.533 212.507 246.006 212.507 246.528C212.507 247.064 212.589 247.534 212.752 247.939C212.915 248.344 213.157 248.66 213.476 248.887C213.8 249.115 214.197 249.228 214.67 249.228ZM220.513 250.672V242.49H222.106V250.672H220.513ZM221.317 241.228C221.04 241.228 220.802 241.135 220.604 240.951C220.408 240.762 220.311 240.539 220.311 240.279C220.311 240.017 220.408 239.793 220.604 239.608C220.802 239.42 221.04 239.326 221.317 239.326C221.594 239.326 221.831 239.42 222.026 239.608C222.225 239.793 222.324 240.017 222.324 240.279C222.324 240.539 222.225 240.762 222.026 240.951C221.831 241.135 221.594 241.228 221.317 241.228ZM226.629 250.853C226.111 250.853 225.642 250.757 225.223 250.565C224.804 250.37 224.472 250.088 224.227 249.718C223.986 249.349 223.865 248.896 223.865 248.36C223.865 247.898 223.954 247.518 224.131 247.22C224.309 246.922 224.548 246.686 224.85 246.512C225.152 246.338 225.49 246.206 225.862 246.118C226.235 246.029 226.615 245.961 227.002 245.915C227.492 245.858 227.89 245.812 228.195 245.777C228.501 245.738 228.723 245.675 228.861 245.59C229 245.505 229.069 245.366 229.069 245.175V245.137C229.069 244.672 228.938 244.312 228.675 244.056C228.416 243.8 228.029 243.673 227.514 243.673C226.977 243.673 226.555 243.792 226.246 244.029C225.941 244.264 225.729 244.525 225.612 244.812L224.115 244.472C224.293 243.974 224.552 243.573 224.893 243.268C225.237 242.959 225.633 242.735 226.081 242.597C226.528 242.455 226.999 242.384 227.492 242.384C227.819 242.384 228.165 242.423 228.531 242.501C228.9 242.575 229.245 242.714 229.564 242.916C229.888 243.119 230.152 243.408 230.358 243.784C230.564 244.157 230.667 244.642 230.667 245.239V250.672H229.112V249.553H229.048C228.945 249.759 228.79 249.962 228.584 250.161C228.378 250.359 228.114 250.525 227.791 250.656C227.468 250.787 227.08 250.853 226.629 250.853ZM226.976 249.575C227.416 249.575 227.792 249.488 228.105 249.314C228.421 249.14 228.661 248.912 228.824 248.632C228.991 248.348 229.074 248.044 229.074 247.721V246.666C229.018 246.723 228.907 246.776 228.744 246.826C228.584 246.872 228.401 246.913 228.195 246.949C227.99 246.98 227.789 247.011 227.594 247.039C227.398 247.064 227.235 247.085 227.104 247.103C226.795 247.142 226.512 247.208 226.257 247.3C226.004 247.392 225.802 247.526 225.649 247.7C225.5 247.87 225.426 248.097 225.426 248.381C225.426 248.776 225.571 249.074 225.862 249.276C226.154 249.475 226.525 249.575 226.976 249.575ZM236.608 242.49V243.768H232.139V242.49H236.608ZM233.337 240.53H234.93V248.27C234.93 248.578 234.976 248.811 235.068 248.967C235.161 249.12 235.28 249.225 235.425 249.282C235.574 249.335 235.736 249.362 235.91 249.362C236.038 249.362 236.15 249.353 236.245 249.335C236.341 249.317 236.416 249.303 236.469 249.292L236.757 250.608C236.665 250.643 236.533 250.679 236.363 250.714C236.192 250.754 235.979 250.775 235.723 250.778C235.304 250.786 234.914 250.711 234.552 250.555C234.189 250.398 233.896 250.157 233.673 249.83C233.449 249.504 233.337 249.093 233.337 248.6V240.53ZM242.339 250.672V242.49H243.868V243.822H243.969C244.14 243.371 244.418 243.019 244.805 242.767C245.193 242.511 245.656 242.384 246.196 242.384C246.743 242.384 247.201 242.511 247.57 242.767C247.943 243.023 248.218 243.374 248.396 243.822H248.481C248.676 243.385 248.987 243.037 249.413 242.778C249.839 242.515 250.347 242.384 250.937 242.384C251.679 242.384 252.284 242.616 252.753 243.081C253.225 243.547 253.461 244.248 253.461 245.185V250.672H251.869V245.335C251.869 244.781 251.718 244.379 251.416 244.131C251.114 243.882 250.754 243.758 250.335 243.758C249.816 243.758 249.413 243.918 249.125 244.237C248.838 244.553 248.694 244.96 248.694 245.457V250.672H247.107V245.233C247.107 244.789 246.968 244.433 246.691 244.163C246.414 243.893 246.054 243.758 245.61 243.758C245.308 243.758 245.029 243.838 244.774 243.998C244.521 244.154 244.317 244.372 244.161 244.653C244.008 244.933 243.932 245.258 243.932 245.627V250.672H242.339ZM257.977 250.853C257.459 250.853 256.99 250.757 256.571 250.565C256.152 250.37 255.82 250.088 255.575 249.718C255.333 249.349 255.213 248.896 255.213 248.36C255.213 247.898 255.301 247.518 255.479 247.22C255.656 246.922 255.896 246.686 256.198 246.512C256.5 246.338 256.837 246.206 257.21 246.118C257.583 246.029 257.963 245.961 258.35 245.915C258.84 245.858 259.238 245.812 259.543 245.777C259.849 245.738 260.07 245.675 260.209 245.59C260.347 245.505 260.417 245.366 260.417 245.175V245.137C260.417 244.672 260.285 244.312 260.023 244.056C259.763 243.8 259.376 243.673 258.861 243.673C258.325 243.673 257.903 243.792 257.594 244.029C257.288 244.264 257.077 244.525 256.96 244.812L255.463 244.472C255.64 243.974 255.9 243.573 256.241 243.268C256.585 242.959 256.981 242.735 257.428 242.597C257.876 242.455 258.346 242.384 258.84 242.384C259.167 242.384 259.513 242.423 259.879 242.501C260.248 242.575 260.593 242.714 260.912 242.916C261.235 243.119 261.5 243.408 261.706 243.784C261.912 244.157 262.015 244.642 262.015 245.239V250.672H260.459V249.553H260.395C260.292 249.759 260.138 249.962 259.932 250.161C259.726 250.359 259.461 250.525 259.138 250.656C258.815 250.787 258.428 250.853 257.977 250.853ZM258.323 249.575C258.764 249.575 259.14 249.488 259.453 249.314C259.769 249.14 260.008 248.912 260.172 248.632C260.339 248.348 260.422 248.044 260.422 247.721V246.666C260.365 246.723 260.255 246.776 260.092 246.826C259.932 246.872 259.749 246.913 259.543 246.949C259.337 246.98 259.137 247.011 258.941 247.039C258.746 247.064 258.583 247.085 258.451 247.103C258.142 247.142 257.86 247.208 257.604 247.3C257.352 247.392 257.15 247.526 256.997 247.7C256.848 247.87 256.773 248.097 256.773 248.381C256.773 248.776 256.919 249.074 257.21 249.276C257.501 249.475 257.872 249.575 258.323 249.575ZM269.319 247.279V242.49H270.917V250.672H269.351V249.255H269.266C269.078 249.692 268.776 250.056 268.36 250.347C267.948 250.635 267.435 250.778 266.821 250.778C266.295 250.778 265.83 250.663 265.425 250.432C265.024 250.198 264.708 249.852 264.477 249.393C264.25 248.935 264.136 248.369 264.136 247.694V242.49H265.729V247.502C265.729 248.06 265.883 248.504 266.192 248.834C266.501 249.164 266.902 249.33 267.396 249.33C267.694 249.33 267.991 249.255 268.286 249.106C268.584 248.957 268.831 248.731 269.026 248.429C269.225 248.127 269.323 247.744 269.319 247.279ZM273.057 250.672V242.49H274.596V243.79H274.682C274.831 243.349 275.094 243.003 275.47 242.751C275.85 242.495 276.28 242.368 276.759 242.368C276.858 242.368 276.976 242.371 277.111 242.378C277.249 242.385 277.357 242.394 277.436 242.405V243.928C277.372 243.911 277.258 243.891 277.095 243.87C276.931 243.845 276.768 243.832 276.605 243.832C276.228 243.832 275.893 243.912 275.598 244.072C275.307 244.228 275.076 244.447 274.905 244.727C274.735 245.004 274.65 245.32 274.65 245.675V250.672H273.057ZM278.814 250.672V242.49H280.407V250.672H278.814ZM279.618 241.228C279.341 241.228 279.103 241.135 278.904 240.951C278.709 240.762 278.611 240.539 278.611 240.279C278.611 240.017 278.709 239.793 278.904 239.608C279.103 239.42 279.341 239.326 279.618 239.326C279.895 239.326 280.131 239.42 280.327 239.608C280.525 239.793 280.625 240.017 280.625 240.279C280.625 240.539 280.525 240.762 280.327 240.951C280.131 241.135 279.895 241.228 279.618 241.228ZM288.68 244.488L287.237 244.743C287.176 244.559 287.08 244.383 286.949 244.216C286.821 244.049 286.647 243.912 286.427 243.806C286.207 243.699 285.932 243.646 285.601 243.646C285.15 243.646 284.774 243.747 284.472 243.95C284.17 244.148 284.019 244.406 284.019 244.722C284.019 244.995 284.121 245.216 284.323 245.382C284.525 245.549 284.852 245.686 285.303 245.793L286.603 246.091C287.356 246.265 287.917 246.533 288.286 246.895C288.655 247.257 288.84 247.728 288.84 248.307C288.84 248.797 288.698 249.234 288.414 249.617C288.133 249.997 287.741 250.295 287.237 250.512C286.736 250.729 286.155 250.837 285.495 250.837C284.579 250.837 283.831 250.642 283.252 250.251C282.673 249.857 282.318 249.298 282.187 248.573L283.726 248.339C283.822 248.74 284.019 249.044 284.318 249.25C284.616 249.452 285.005 249.553 285.484 249.553C286.006 249.553 286.423 249.445 286.736 249.228C287.048 249.008 287.205 248.74 287.205 248.424C287.205 248.168 287.109 247.953 286.917 247.779C286.729 247.605 286.439 247.474 286.049 247.385L284.664 247.082C283.9 246.908 283.336 246.631 282.97 246.251C282.608 245.871 282.427 245.39 282.427 244.807C282.427 244.324 282.562 243.902 282.831 243.539C283.101 243.177 283.474 242.895 283.95 242.692C284.426 242.487 284.971 242.384 285.585 242.384C286.47 242.384 287.166 242.575 287.673 242.959C288.181 243.339 288.517 243.848 288.68 244.488ZM292.663 249.18L292.583 249.761C292.53 250.187 292.44 250.631 292.312 251.093C292.187 251.558 292.058 251.989 291.923 252.387C291.791 252.785 291.683 253.101 291.598 253.335H290.469C290.515 253.115 290.579 252.817 290.66 252.44C290.742 252.067 290.822 251.65 290.9 251.189C290.978 250.727 291.037 250.256 291.076 249.777L291.129 249.18H292.663ZM298.706 250.672V242.49H300.235V243.822H300.336C300.507 243.371 300.786 243.019 301.173 242.767C301.56 242.511 302.023 242.384 302.563 242.384C303.11 242.384 303.568 242.511 303.937 242.767C304.31 243.023 304.585 243.374 304.763 243.822H304.848C305.043 243.385 305.354 243.037 305.78 242.778C306.206 242.515 306.714 242.384 307.304 242.384C308.046 242.384 308.651 242.616 309.12 243.081C309.592 243.547 309.829 244.248 309.829 245.185V250.672H308.236V245.335C308.236 244.781 308.085 244.379 307.783 244.131C307.481 243.882 307.121 243.758 306.702 243.758C306.183 243.758 305.78 243.918 305.493 244.237C305.205 244.553 305.061 244.96 305.061 245.457V250.672H303.474V245.233C303.474 244.789 303.335 244.433 303.058 244.163C302.781 243.893 302.421 243.758 301.977 243.758C301.675 243.758 301.396 243.838 301.141 243.998C300.889 244.154 300.684 244.372 300.528 244.653C300.375 244.933 300.299 245.258 300.299 245.627V250.672H298.706ZM314.344 250.853C313.826 250.853 313.357 250.757 312.938 250.565C312.519 250.37 312.187 250.088 311.942 249.718C311.7 249.349 311.58 248.896 311.58 248.36C311.58 247.898 311.669 247.518 311.846 247.22C312.024 246.922 312.263 246.686 312.565 246.512C312.867 246.338 313.204 246.206 313.577 246.118C313.95 246.029 314.33 245.961 314.717 245.915C315.207 245.858 315.605 245.812 315.91 245.777C316.216 245.738 316.438 245.675 316.576 245.59C316.715 245.505 316.784 245.366 316.784 245.175V245.137C316.784 244.672 316.653 244.312 316.39 244.056C316.131 243.8 315.743 243.673 315.229 243.673C314.692 243.673 314.27 243.792 313.961 244.029C313.655 244.264 313.444 244.525 313.327 244.812L311.83 244.472C312.008 243.974 312.267 243.573 312.608 243.268C312.952 242.959 313.348 242.735 313.796 242.597C314.243 242.455 314.714 242.384 315.207 242.384C315.534 242.384 315.88 242.423 316.246 242.501C316.615 242.575 316.96 242.714 317.279 242.916C317.602 243.119 317.867 243.408 318.073 243.784C318.279 244.157 318.382 244.642 318.382 245.239V250.672H316.827V249.553H316.763C316.66 249.759 316.505 249.962 316.299 250.161C316.093 250.359 315.829 250.525 315.506 250.656C315.182 250.787 314.795 250.853 314.344 250.853ZM314.691 249.575C315.131 249.575 315.507 249.488 315.82 249.314C316.136 249.14 316.376 248.912 316.539 248.632C316.706 248.348 316.789 248.044 316.789 247.721V246.666C316.732 246.723 316.622 246.776 316.459 246.826C316.299 246.872 316.116 246.913 315.91 246.949C315.704 246.98 315.504 247.011 315.308 247.039C315.113 247.064 314.95 247.085 314.818 247.103C314.509 247.142 314.227 247.208 313.971 247.3C313.719 247.392 313.517 247.526 313.364 247.7C313.215 247.87 313.14 248.097 313.14 248.381C313.14 248.776 313.286 249.074 313.577 249.276C313.868 249.475 314.24 249.575 314.691 249.575ZM322.096 239.763V250.672H320.503V239.763H322.096ZM327.765 250.837C326.959 250.837 326.265 250.665 325.682 250.32C325.103 249.972 324.656 249.484 324.34 248.855C324.027 248.223 323.871 247.483 323.871 246.634C323.871 245.796 324.027 245.058 324.34 244.418C324.656 243.779 325.096 243.28 325.661 242.922C326.229 242.563 326.893 242.384 327.653 242.384C328.115 242.384 328.562 242.46 328.995 242.613C329.429 242.765 329.817 243.005 330.162 243.332C330.506 243.658 330.778 244.083 330.977 244.605C331.176 245.123 331.275 245.754 331.275 246.496V247.06H324.771V245.867H329.714C329.714 245.448 329.629 245.077 329.459 244.754C329.288 244.427 329.049 244.17 328.74 243.982C328.434 243.793 328.076 243.699 327.664 243.699C327.216 243.699 326.826 243.809 326.492 244.029C326.162 244.246 325.906 244.53 325.725 244.882C325.547 245.23 325.458 245.608 325.458 246.016V246.949C325.458 247.495 325.554 247.961 325.746 248.344C325.941 248.728 326.213 249.021 326.561 249.223C326.909 249.422 327.316 249.521 327.781 249.521C328.083 249.521 328.358 249.479 328.607 249.393C328.855 249.305 329.07 249.173 329.251 248.999C329.432 248.825 329.571 248.61 329.667 248.355L331.174 248.626C331.053 249.07 330.837 249.459 330.524 249.793C330.215 250.123 329.826 250.381 329.358 250.565C328.892 250.746 328.362 250.837 327.765 250.837ZM339.173 244.488L337.73 244.743C337.669 244.559 337.574 244.383 337.442 244.216C337.314 244.049 337.14 243.912 336.92 243.806C336.7 243.699 336.425 243.646 336.095 243.646C335.644 243.646 335.267 243.747 334.965 243.95C334.663 244.148 334.513 244.406 334.513 244.722C334.513 244.995 334.614 245.216 334.816 245.382C335.019 245.549 335.345 245.686 335.796 245.793L337.096 246.091C337.849 246.265 338.41 246.533 338.779 246.895C339.149 247.257 339.333 247.728 339.333 248.307C339.333 248.797 339.191 249.234 338.907 249.617C338.627 249.997 338.234 250.295 337.73 250.512C337.229 250.729 336.649 250.837 335.988 250.837C335.072 250.837 334.324 250.642 333.745 250.251C333.167 249.857 332.812 249.298 332.68 248.573L334.22 248.339C334.315 248.74 334.513 249.044 334.811 249.25C335.109 249.452 335.498 249.553 335.977 249.553C336.499 249.553 336.917 249.445 337.229 249.228C337.542 249.008 337.698 248.74 337.698 248.424C337.698 248.168 337.602 247.953 337.41 247.779C337.222 247.605 336.933 247.474 336.542 247.385L335.157 247.082C334.394 246.908 333.829 246.631 333.463 246.251C333.101 245.871 332.92 245.39 332.92 244.807C332.92 244.324 333.055 243.902 333.325 243.539C333.595 243.177 333.967 242.895 334.443 242.692C334.919 242.487 335.464 242.384 336.079 242.384C336.963 242.384 337.659 242.575 338.167 242.959C338.674 243.339 339.01 243.848 339.173 244.488ZM346.267 247.279V242.49H347.865V250.672H346.299V249.255H346.214C346.026 249.692 345.724 250.056 345.308 250.347C344.896 250.635 344.383 250.778 343.769 250.778C343.243 250.778 342.778 250.663 342.373 250.432C341.972 250.198 341.656 249.852 341.425 249.393C341.198 248.935 341.084 248.369 341.084 247.694V242.49H342.677V247.502C342.677 248.06 342.831 248.504 343.14 248.834C343.449 249.164 343.851 249.33 344.344 249.33C344.643 249.33 344.939 249.255 345.234 249.106C345.532 248.957 345.779 248.731 345.974 248.429C346.173 248.127 346.271 247.744 346.267 247.279ZM352.386 250.853C351.868 250.853 351.399 250.757 350.98 250.565C350.561 250.37 350.229 250.088 349.984 249.718C349.742 249.349 349.622 248.896 349.622 248.36C349.622 247.898 349.71 247.518 349.888 247.22C350.066 246.922 350.305 246.686 350.607 246.512C350.909 246.338 351.246 246.206 351.619 246.118C351.992 246.029 352.372 245.961 352.759 245.915C353.249 245.858 353.647 245.812 353.952 245.777C354.258 245.738 354.48 245.675 354.618 245.59C354.757 245.505 354.826 245.366 354.826 245.175V245.137C354.826 244.672 354.695 244.312 354.432 244.056C354.172 243.8 353.785 243.673 353.271 243.673C352.734 243.673 352.312 243.792 352.003 244.029C351.697 244.264 351.486 244.525 351.369 244.812L349.872 244.472C350.05 243.974 350.309 243.573 350.65 243.268C350.994 242.959 351.39 242.735 351.838 242.597C352.285 242.455 352.756 242.384 353.249 242.384C353.576 242.384 353.922 242.423 354.288 242.501C354.657 242.575 355.002 242.714 355.321 242.916C355.644 243.119 355.909 243.408 356.115 243.784C356.321 244.157 356.424 244.642 356.424 245.239V250.672H354.869V249.553H354.805C354.702 249.759 354.547 249.962 354.341 250.161C354.135 250.359 353.871 250.525 353.547 250.656C353.224 250.787 352.837 250.853 352.386 250.853ZM352.733 249.575C353.173 249.575 353.549 249.488 353.862 249.314C354.178 249.14 354.418 248.912 354.581 248.632C354.748 248.348 354.831 248.044 354.831 247.721V246.666C354.774 246.723 354.664 246.776 354.501 246.826C354.341 246.872 354.158 246.913 353.952 246.949C353.746 246.98 353.546 247.011 353.35 247.039C353.155 247.064 352.992 247.085 352.86 247.103C352.551 247.142 352.269 247.208 352.013 247.3C351.761 247.392 351.559 247.526 351.406 247.7C351.257 247.87 351.182 248.097 351.182 248.381C351.182 248.776 351.328 249.074 351.619 249.276C351.91 249.475 352.282 249.575 352.733 249.575ZM361.608 250.832C360.948 250.832 360.358 250.663 359.84 250.326C359.325 249.985 358.92 249.5 358.625 248.871C358.334 248.239 358.188 247.481 358.188 246.597C358.188 245.713 358.336 244.956 358.631 244.328C358.929 243.699 359.337 243.218 359.856 242.884C360.374 242.55 360.962 242.384 361.619 242.384C362.127 242.384 362.535 242.469 362.844 242.639C363.156 242.806 363.398 243.001 363.568 243.225C363.742 243.449 363.877 243.646 363.973 243.816H364.069V239.763H365.662V250.672H364.106V249.399H363.973C363.877 249.573 363.739 249.772 363.558 249.995C363.38 250.219 363.135 250.414 362.823 250.581C362.51 250.748 362.105 250.832 361.608 250.832ZM361.96 249.473C362.418 249.473 362.805 249.353 363.121 249.111C363.441 248.866 363.682 248.527 363.845 248.094C364.012 247.661 364.096 247.156 364.096 246.581C364.096 246.013 364.014 245.516 363.851 245.089C363.687 244.663 363.448 244.331 363.132 244.093C362.816 243.855 362.425 243.737 361.96 243.737C361.48 243.737 361.081 243.861 360.761 244.109C360.442 244.358 360.2 244.697 360.037 245.127C359.877 245.556 359.797 246.041 359.797 246.581C359.797 247.128 359.879 247.62 360.042 248.056C360.205 248.493 360.447 248.839 360.767 249.095C361.09 249.347 361.487 249.473 361.96 249.473ZM370.316 250.853C369.797 250.853 369.329 250.757 368.91 250.565C368.491 250.37 368.159 250.088 367.914 249.718C367.672 249.349 367.551 248.896 367.551 248.36C367.551 247.898 367.64 247.518 367.818 247.22C367.995 246.922 368.235 246.686 368.537 246.512C368.839 246.338 369.176 246.206 369.549 246.118C369.922 246.029 370.302 245.961 370.689 245.915C371.179 245.858 371.577 245.812 371.882 245.777C372.187 245.738 372.409 245.675 372.548 245.59C372.686 245.505 372.756 245.366 372.756 245.175V245.137C372.756 244.672 372.624 244.312 372.361 244.056C372.102 243.8 371.715 243.673 371.2 243.673C370.664 243.673 370.241 243.792 369.932 244.029C369.627 244.264 369.416 244.525 369.299 244.812L367.802 244.472C367.979 243.974 368.239 243.573 368.579 243.268C368.924 242.959 369.32 242.735 369.767 242.597C370.215 242.455 370.685 242.384 371.179 242.384C371.506 242.384 371.852 242.423 372.218 242.501C372.587 242.575 372.931 242.714 373.251 242.916C373.574 243.119 373.839 243.408 374.045 243.784C374.251 244.157 374.354 244.642 374.354 245.239V250.672H372.798V249.553H372.734C372.631 249.759 372.477 249.962 372.271 250.161C372.065 250.359 371.8 250.525 371.477 250.656C371.154 250.787 370.767 250.853 370.316 250.853ZM370.662 249.575C371.103 249.575 371.479 249.488 371.791 249.314C372.108 249.14 372.347 248.912 372.511 248.632C372.677 248.348 372.761 248.044 372.761 247.721V246.666C372.704 246.723 372.594 246.776 372.431 246.826C372.271 246.872 372.088 246.913 371.882 246.949C371.676 246.98 371.475 247.011 371.28 247.039C371.085 247.064 370.921 247.085 370.79 247.103C370.481 247.142 370.199 247.208 369.943 247.3C369.691 247.392 369.489 247.526 369.336 247.7C369.187 247.87 369.112 248.097 369.112 248.381C369.112 248.776 369.258 249.074 369.549 249.276C369.84 249.475 370.211 249.575 370.662 249.575ZM113.663 266.814V271.672H112.071V263.49H113.599V264.822H113.701C113.889 264.388 114.184 264.04 114.585 263.778C114.99 263.515 115.499 263.384 116.114 263.384C116.671 263.384 117.159 263.501 117.578 263.735C117.998 263.966 118.322 264.31 118.553 264.768C118.784 265.227 118.9 265.793 118.9 266.468V271.672H117.307V266.659C117.307 266.066 117.152 265.603 116.843 265.269C116.534 264.932 116.11 264.763 115.57 264.763C115.201 264.763 114.873 264.843 114.585 265.003C114.301 265.163 114.075 265.397 113.908 265.706C113.745 266.011 113.663 266.381 113.663 266.814ZM126.218 268.279V263.49H127.816V271.672H126.25V270.255H126.165C125.977 270.692 125.675 271.056 125.26 271.347C124.848 271.635 124.335 271.778 123.72 271.778C123.195 271.778 122.729 271.663 122.325 271.432C121.923 271.198 121.607 270.852 121.376 270.393C121.149 269.935 121.036 269.369 121.036 268.694V263.49H122.628V268.502C122.628 269.06 122.783 269.504 123.092 269.834C123.401 270.164 123.802 270.33 124.295 270.33C124.594 270.33 124.89 270.255 125.185 270.106C125.483 269.957 125.73 269.731 125.925 269.429C126.124 269.127 126.222 268.744 126.218 268.279ZM131.549 260.763V271.672H129.956V260.763H131.549ZM135.284 260.763V271.672H133.692V260.763H135.284ZM139.808 271.853C139.29 271.853 138.821 271.757 138.402 271.565C137.983 271.37 137.651 271.088 137.406 270.718C137.164 270.349 137.044 269.896 137.044 269.36C137.044 268.898 137.132 268.518 137.31 268.22C137.487 267.922 137.727 267.686 138.029 267.512C138.331 267.338 138.668 267.206 139.041 267.118C139.414 267.029 139.794 266.961 140.181 266.915C140.671 266.858 141.069 266.812 141.374 266.777C141.68 266.738 141.902 266.675 142.04 266.59C142.179 266.505 142.248 266.366 142.248 266.175V266.137C142.248 265.672 142.116 265.312 141.854 265.056C141.594 264.8 141.207 264.673 140.692 264.673C140.156 264.673 139.734 264.792 139.425 265.029C139.119 265.264 138.908 265.525 138.791 265.812L137.294 265.472C137.472 264.974 137.731 264.573 138.072 264.268C138.416 263.959 138.812 263.735 139.259 263.597C139.707 263.455 140.177 263.384 140.671 263.384C140.998 263.384 141.344 263.423 141.71 263.501C142.079 263.575 142.424 263.714 142.743 263.916C143.066 264.119 143.331 264.408 143.537 264.784C143.743 265.157 143.846 265.642 143.846 266.239V271.672H142.29V270.553H142.226C142.123 270.759 141.969 270.962 141.763 271.161C141.557 271.359 141.293 271.525 140.969 271.656C140.646 271.787 140.259 271.853 139.808 271.853ZM140.154 270.575C140.595 270.575 140.971 270.488 141.284 270.314C141.6 270.14 141.839 269.912 142.003 269.632C142.17 269.348 142.253 269.044 142.253 268.721V267.666C142.196 267.723 142.086 267.776 141.923 267.826C141.763 267.872 141.58 267.913 141.374 267.949C141.168 267.98 140.968 268.011 140.772 268.039C140.577 268.064 140.414 268.085 140.282 268.103C139.973 268.142 139.691 268.208 139.435 268.3C139.183 268.392 138.981 268.526 138.828 268.7C138.679 268.87 138.604 269.097 138.604 269.381C138.604 269.776 138.75 270.074 139.041 270.276C139.332 270.475 139.703 270.575 140.154 270.575ZM151.53 260.763V271.672H149.937V260.763H151.53ZM157.199 271.837C156.392 271.837 155.698 271.665 155.116 271.32C154.537 270.972 154.089 270.484 153.773 269.855C153.461 269.223 153.305 268.483 153.305 267.634C153.305 266.796 153.461 266.058 153.773 265.418C154.089 264.779 154.53 264.28 155.094 263.922C155.663 263.563 156.327 263.384 157.087 263.384C157.548 263.384 157.996 263.46 158.429 263.613C158.862 263.765 159.251 264.005 159.596 264.332C159.94 264.658 160.212 265.083 160.411 265.605C160.609 266.123 160.709 266.754 160.709 267.496V268.06H154.205V266.867H159.148C159.148 266.448 159.063 266.077 158.892 265.754C158.722 265.427 158.482 265.17 158.173 264.982C157.868 264.793 157.509 264.699 157.097 264.699C156.65 264.699 156.259 264.809 155.925 265.029C155.595 265.246 155.339 265.53 155.158 265.882C154.981 266.23 154.892 266.608 154.892 267.016V267.949C154.892 268.495 154.988 268.961 155.18 269.344C155.375 269.728 155.647 270.021 155.995 270.223C156.343 270.422 156.749 270.521 157.214 270.521C157.516 270.521 157.792 270.479 158.04 270.393C158.289 270.305 158.504 270.173 158.685 269.999C158.866 269.825 159.004 269.61 159.1 269.355L160.608 269.626C160.487 270.07 160.27 270.459 159.958 270.793C159.649 271.123 159.26 271.381 158.791 271.565C158.326 271.746 157.795 271.837 157.199 271.837ZM165.922 271.837C165.155 271.837 164.486 271.661 163.914 271.31C163.342 270.958 162.899 270.466 162.582 269.834C162.266 269.202 162.108 268.463 162.108 267.618C162.108 266.77 162.266 266.027 162.582 265.392C162.899 264.756 163.342 264.262 163.914 263.911C164.486 263.559 165.155 263.384 165.922 263.384C166.689 263.384 167.359 263.559 167.93 263.911C168.502 264.262 168.946 264.756 169.262 265.392C169.578 266.027 169.736 266.77 169.736 267.618C169.736 268.463 169.578 269.202 169.262 269.834C168.946 270.466 168.502 270.958 167.93 271.31C167.359 271.661 166.689 271.837 165.922 271.837ZM165.928 270.5C166.425 270.5 166.837 270.369 167.163 270.106C167.49 269.843 167.732 269.493 167.888 269.056C168.048 268.62 168.128 268.138 168.128 267.613C168.128 267.091 168.048 266.612 167.888 266.175C167.732 265.734 167.49 265.381 167.163 265.115C166.837 264.848 166.425 264.715 165.928 264.715C165.427 264.715 165.011 264.848 164.681 265.115C164.354 265.381 164.111 265.734 163.951 266.175C163.795 266.612 163.717 267.091 163.717 267.613C163.717 268.138 163.795 268.62 163.951 269.056C164.111 269.493 164.354 269.843 164.681 270.106C165.011 270.369 165.427 270.5 165.928 270.5ZM175.484 274.74V263.49H177.039V264.816H177.172C177.265 264.646 177.398 264.449 177.572 264.225C177.746 264.001 177.987 263.806 178.296 263.639C178.605 263.469 179.014 263.384 179.521 263.384C180.182 263.384 180.771 263.55 181.29 263.884C181.808 264.218 182.215 264.699 182.51 265.328C182.808 265.956 182.957 266.713 182.957 267.597C182.957 268.481 182.81 269.239 182.515 269.871C182.22 270.5 181.815 270.985 181.301 271.326C180.786 271.663 180.198 271.832 179.537 271.832C179.04 271.832 178.634 271.748 178.318 271.581C178.005 271.414 177.76 271.219 177.582 270.995C177.405 270.772 177.268 270.573 177.172 270.399H177.076V274.74H175.484ZM177.044 267.581C177.044 268.156 177.128 268.661 177.295 269.094C177.462 269.527 177.703 269.866 178.019 270.111C178.335 270.353 178.722 270.473 179.18 270.473C179.656 270.473 180.054 270.347 180.374 270.095C180.693 269.839 180.935 269.493 181.098 269.056C181.265 268.62 181.348 268.128 181.348 267.581C181.348 267.041 181.267 266.556 181.103 266.127C180.944 265.697 180.702 265.358 180.379 265.109C180.059 264.861 179.66 264.737 179.18 264.737C178.719 264.737 178.328 264.855 178.009 265.093C177.693 265.331 177.453 265.663 177.29 266.089C177.126 266.516 177.044 267.013 177.044 267.581ZM188.188 271.837C187.421 271.837 186.752 271.661 186.18 271.31C185.608 270.958 185.164 270.466 184.848 269.834C184.532 269.202 184.374 268.463 184.374 267.618C184.374 266.77 184.532 266.027 184.848 265.392C185.164 264.756 185.608 264.262 186.18 263.911C186.752 263.559 187.421 263.384 188.188 263.384C188.955 263.384 189.624 263.559 190.196 263.911C190.768 264.262 191.212 264.756 191.528 265.392C191.844 266.027 192.002 266.77 192.002 267.618C192.002 268.463 191.844 269.202 191.528 269.834C191.212 270.466 190.768 270.958 190.196 271.31C189.624 271.661 188.955 271.837 188.188 271.837ZM188.193 270.5C188.69 270.5 189.102 270.369 189.429 270.106C189.756 269.843 189.997 269.493 190.153 269.056C190.313 268.62 190.393 268.138 190.393 267.613C190.393 267.091 190.313 266.612 190.153 266.175C189.997 265.734 189.756 265.381 189.429 265.115C189.102 264.848 188.69 264.715 188.193 264.715C187.693 264.715 187.277 264.848 186.947 265.115C186.62 265.381 186.377 265.734 186.217 266.175C186.061 266.612 185.983 267.091 185.983 267.613C185.983 268.138 186.061 268.62 186.217 269.056C186.377 269.493 186.62 269.843 186.947 270.106C187.277 270.369 187.693 270.5 188.193 270.5ZM193.78 271.672V263.49H195.319V264.79H195.404C195.553 264.349 195.816 264.003 196.193 263.751C196.573 263.495 197.002 263.368 197.482 263.368C197.581 263.368 197.698 263.371 197.833 263.378C197.972 263.385 198.08 263.394 198.158 263.405V264.928C198.094 264.911 197.981 264.891 197.817 264.87C197.654 264.845 197.491 264.832 197.327 264.832C196.951 264.832 196.615 264.912 196.32 265.072C196.029 265.228 195.798 265.447 195.628 265.727C195.458 266.004 195.372 266.32 195.372 266.675V271.672H193.78ZM203.839 263.49V264.768H199.37V263.49H203.839ZM200.569 261.53H202.161V269.27C202.161 269.578 202.207 269.811 202.3 269.967C202.392 270.12 202.511 270.225 202.657 270.282C202.806 270.335 202.967 270.362 203.141 270.362C203.269 270.362 203.381 270.353 203.477 270.335C203.573 270.317 203.647 270.303 203.701 270.292L203.988 271.608C203.896 271.643 203.765 271.679 203.594 271.714C203.424 271.754 203.211 271.775 202.955 271.778C202.536 271.786 202.145 271.711 201.783 271.555C201.421 271.398 201.128 271.157 200.904 270.83C200.68 270.504 200.569 270.093 200.569 269.6V261.53ZM207.982 271.853C207.464 271.853 206.995 271.757 206.576 271.565C206.157 271.37 205.825 271.088 205.58 270.718C205.338 270.349 205.217 269.896 205.217 269.36C205.217 268.898 205.306 268.518 205.484 268.22C205.661 267.922 205.901 267.686 206.203 267.512C206.505 267.338 206.842 267.206 207.215 267.118C207.588 267.029 207.968 266.961 208.355 266.915C208.845 266.858 209.243 266.812 209.548 266.777C209.853 266.738 210.075 266.675 210.214 266.59C210.352 266.505 210.422 266.366 210.422 266.175V266.137C210.422 265.672 210.29 265.312 210.027 265.056C209.768 264.8 209.381 264.673 208.866 264.673C208.33 264.673 207.907 264.792 207.598 265.029C207.293 265.264 207.082 265.525 206.965 265.812L205.468 265.472C205.645 264.974 205.905 264.573 206.245 264.268C206.59 263.959 206.986 263.735 207.433 263.597C207.881 263.455 208.351 263.384 208.845 263.384C209.172 263.384 209.518 263.423 209.884 263.501C210.253 263.575 210.597 263.714 210.917 263.916C211.24 264.119 211.505 264.408 211.711 264.784C211.917 265.157 212.02 265.642 212.02 266.239V271.672H210.464V270.553H210.4C210.297 270.759 210.143 270.962 209.937 271.161C209.731 271.359 209.466 271.525 209.143 271.656C208.82 271.787 208.433 271.853 207.982 271.853ZM208.328 270.575C208.769 270.575 209.145 270.488 209.457 270.314C209.774 270.14 210.013 269.912 210.177 269.632C210.343 269.348 210.427 269.044 210.427 268.721V267.666C210.37 267.723 210.26 267.776 210.097 267.826C209.937 267.872 209.754 267.913 209.548 267.949C209.342 267.98 209.141 268.011 208.946 268.039C208.751 268.064 208.587 268.085 208.456 268.103C208.147 268.142 207.865 268.208 207.609 268.3C207.357 268.392 207.155 268.526 207.002 268.7C206.853 268.87 206.778 269.097 206.778 269.381C206.778 269.776 206.924 270.074 207.215 270.276C207.506 270.475 207.877 270.575 208.328 270.575ZM221.637 271.837C220.831 271.837 220.137 271.665 219.554 271.32C218.975 270.972 218.528 270.484 218.212 269.855C217.899 269.223 217.743 268.483 217.743 267.634C217.743 266.796 217.899 266.058 218.212 265.418C218.528 264.779 218.968 264.28 219.533 263.922C220.101 263.563 220.765 263.384 221.525 263.384C221.987 263.384 222.434 263.46 222.867 263.613C223.301 263.765 223.69 264.005 224.034 264.332C224.378 264.658 224.65 265.083 224.849 265.605C225.048 266.123 225.147 266.754 225.147 267.496V268.06H218.643V266.867H223.587C223.587 266.448 223.501 266.077 223.331 265.754C223.16 265.427 222.921 265.17 222.612 264.982C222.306 264.793 221.948 264.699 221.536 264.699C221.088 264.699 220.698 264.809 220.364 265.029C220.034 265.246 219.778 265.53 219.597 265.882C219.419 266.23 219.331 266.608 219.331 267.016V267.949C219.331 268.495 219.426 268.961 219.618 269.344C219.813 269.728 220.085 270.021 220.433 270.223C220.781 270.422 221.188 270.521 221.653 270.521C221.955 270.521 222.23 270.479 222.479 270.393C222.727 270.305 222.942 270.173 223.123 269.999C223.304 269.825 223.443 269.61 223.539 269.355L225.046 269.626C224.925 270.07 224.709 270.459 224.396 270.793C224.087 271.123 223.698 271.381 223.23 271.565C222.764 271.746 222.234 271.837 221.637 271.837ZM230.734 263.49V264.768H226.265V263.49H230.734ZM227.463 261.53H229.056V269.27C229.056 269.578 229.102 269.811 229.194 269.967C229.287 270.12 229.406 270.225 229.551 270.282C229.7 270.335 229.862 270.362 230.036 270.362C230.164 270.362 230.276 270.353 230.371 270.335C230.467 270.317 230.542 270.303 230.595 270.292L230.883 271.608C230.79 271.643 230.659 271.679 230.489 271.714C230.318 271.754 230.105 271.775 229.849 271.778C229.43 271.786 229.04 271.711 228.678 271.555C228.315 271.398 228.022 271.157 227.799 270.83C227.575 270.504 227.463 270.093 227.463 269.6V261.53ZM233.545 271.773C233.254 271.773 233.003 271.67 232.794 271.464C232.584 271.255 232.479 271.002 232.479 270.708C232.479 270.417 232.584 270.168 232.794 269.962C233.003 269.752 233.254 269.648 233.545 269.648C233.836 269.648 234.086 269.752 234.296 269.962C234.505 270.168 234.61 270.417 234.61 270.708C234.61 270.903 234.56 271.082 234.461 271.246C234.365 271.406 234.237 271.533 234.078 271.629C233.918 271.725 233.74 271.773 233.545 271.773ZM249.47 260.763V271.672H247.958L242.412 263.671H242.311V271.672H240.665V260.763H242.189L247.739 268.774H247.84V260.763H249.47ZM256.926 268.279V263.49H258.524V271.672H256.958V270.255H256.873C256.685 270.692 256.383 271.056 255.968 271.347C255.556 271.635 255.043 271.778 254.428 271.778C253.903 271.778 253.437 271.663 253.033 271.432C252.631 271.198 252.315 270.852 252.084 270.393C251.857 269.935 251.744 269.369 251.744 268.694V263.49H253.336V268.502C253.336 269.06 253.491 269.504 253.8 269.834C254.109 270.164 254.51 270.33 255.003 270.33C255.302 270.33 255.598 270.255 255.893 270.106C256.191 269.957 256.438 269.731 256.633 269.429C256.832 269.127 256.93 268.744 256.926 268.279ZM262.257 266.814V271.672H260.664V263.49H262.193V264.822H262.294C262.483 264.388 262.777 264.04 263.179 263.778C263.583 263.515 264.093 263.384 264.707 263.384C265.265 263.384 265.753 263.501 266.172 263.735C266.591 263.966 266.916 264.31 267.147 264.768C267.378 265.227 267.493 265.793 267.493 266.468V271.672H265.901V266.659C265.901 266.066 265.746 265.603 265.437 265.269C265.128 264.932 264.704 264.763 264.164 264.763C263.795 264.763 263.466 264.843 263.179 265.003C262.895 265.163 262.669 265.397 262.502 265.706C262.339 266.011 262.257 266.381 262.257 266.814ZM273.076 271.837C272.284 271.837 271.602 271.658 271.03 271.299C270.462 270.937 270.025 270.438 269.72 269.802C269.414 269.167 269.262 268.439 269.262 267.618C269.262 266.787 269.418 266.054 269.73 265.418C270.043 264.779 270.483 264.28 271.051 263.922C271.62 263.563 272.289 263.384 273.06 263.384C273.681 263.384 274.235 263.499 274.722 263.73C275.208 263.957 275.6 264.277 275.899 264.689C276.201 265.1 276.38 265.582 276.437 266.132H274.887C274.801 265.749 274.606 265.418 274.301 265.141C273.999 264.864 273.594 264.726 273.086 264.726C272.642 264.726 272.254 264.843 271.92 265.077C271.589 265.308 271.332 265.638 271.147 266.068C270.963 266.494 270.87 266.999 270.87 267.581C270.87 268.178 270.961 268.692 271.142 269.126C271.323 269.559 271.579 269.895 271.909 270.132C272.243 270.37 272.635 270.489 273.086 270.489C273.388 270.489 273.662 270.434 273.907 270.324C274.155 270.211 274.363 270.049 274.53 269.839C274.7 269.63 274.819 269.378 274.887 269.083H276.437C276.38 269.612 276.208 270.085 275.92 270.5C275.632 270.915 275.247 271.242 274.764 271.48C274.285 271.718 273.722 271.837 273.076 271.837ZM285.636 271.837C284.83 271.837 284.136 271.665 283.553 271.32C282.974 270.972 282.527 270.484 282.211 269.855C281.898 269.223 281.742 268.483 281.742 267.634C281.742 266.796 281.898 266.058 282.211 265.418C282.527 264.779 282.967 264.28 283.532 263.922C284.1 263.563 284.764 263.384 285.524 263.384C285.986 263.384 286.433 263.46 286.866 263.613C287.3 263.765 287.689 264.005 288.033 264.332C288.377 264.658 288.649 265.083 288.848 265.605C289.047 266.123 289.146 266.754 289.146 267.496V268.06H282.642V266.867H287.586C287.586 266.448 287.5 266.077 287.33 265.754C287.159 265.427 286.92 265.17 286.611 264.982C286.305 264.793 285.947 264.699 285.535 264.699C285.087 264.699 284.697 264.809 284.363 265.029C284.033 265.246 283.777 265.53 283.596 265.882C283.418 266.23 283.33 266.608 283.33 267.016V267.949C283.33 268.495 283.425 268.961 283.617 269.344C283.812 269.728 284.084 270.021 284.432 270.223C284.78 270.422 285.187 270.521 285.652 270.521C285.954 270.521 286.229 270.479 286.478 270.393C286.726 270.305 286.941 270.173 287.122 269.999C287.303 269.825 287.442 269.61 287.538 269.355L289.045 269.626C288.924 270.07 288.708 270.459 288.395 270.793C288.086 271.123 287.697 271.381 287.229 271.565C286.763 271.746 286.233 271.837 285.636 271.837ZM292.506 260.763V271.672H290.913V260.763H292.506ZM298.175 271.837C297.369 271.837 296.675 271.665 296.092 271.32C295.513 270.972 295.066 270.484 294.75 269.855C294.438 269.223 294.281 268.483 294.281 267.634C294.281 266.796 294.438 266.058 294.75 265.418C295.066 264.779 295.506 264.28 296.071 263.922C296.639 263.563 297.303 263.384 298.063 263.384C298.525 263.384 298.972 263.46 299.406 263.613C299.839 263.765 300.228 264.005 300.572 264.332C300.917 264.658 301.188 265.083 301.387 265.605C301.586 266.123 301.685 266.754 301.685 267.496V268.06H295.181V266.867H300.125C300.125 266.448 300.039 266.077 299.869 265.754C299.699 265.427 299.459 265.17 299.15 264.982C298.844 264.793 298.486 264.699 298.074 264.699C297.626 264.699 297.236 264.809 296.902 265.029C296.572 265.246 296.316 265.53 296.135 265.882C295.957 266.23 295.869 266.608 295.869 267.016V267.949C295.869 268.495 295.964 268.961 296.156 269.344C296.352 269.728 296.623 270.021 296.971 270.223C297.319 270.422 297.726 270.521 298.191 270.521C298.493 270.521 298.768 270.479 299.017 270.393C299.265 270.305 299.48 270.173 299.661 269.999C299.842 269.825 299.981 269.61 300.077 269.355L301.584 269.626C301.463 270.07 301.247 270.459 300.934 270.793C300.625 271.123 300.237 271.381 299.768 271.565C299.303 271.746 298.772 271.837 298.175 271.837ZM303.453 271.672V263.49H305.045V271.672H303.453ZM304.257 262.228C303.98 262.228 303.742 262.135 303.543 261.951C303.348 261.762 303.25 261.539 303.25 261.279C303.25 261.017 303.348 260.793 303.543 260.608C303.742 260.42 303.98 260.326 304.257 260.326C304.534 260.326 304.77 260.42 304.965 260.608C305.164 260.793 305.264 261.017 305.264 261.279C305.264 261.539 305.164 261.762 304.965 261.951C304.77 262.135 304.534 262.228 304.257 262.228ZM311.082 263.49V264.768H306.458V263.49H311.082ZM307.726 271.672V262.542C307.726 262.031 307.838 261.606 308.061 261.269C308.285 260.928 308.582 260.674 308.951 260.507C309.32 260.337 309.722 260.251 310.155 260.251C310.474 260.251 310.748 260.278 310.975 260.331C311.202 260.381 311.371 260.427 311.481 260.47L311.108 261.759C311.034 261.738 310.938 261.713 310.821 261.684C310.703 261.652 310.561 261.636 310.395 261.636C310.007 261.636 309.73 261.732 309.564 261.924C309.4 262.116 309.319 262.393 309.319 262.755V271.672H307.726ZM315.929 271.837C315.123 271.837 314.429 271.665 313.846 271.32C313.267 270.972 312.82 270.484 312.504 269.855C312.191 269.223 312.035 268.483 312.035 267.634C312.035 266.796 312.191 266.058 312.504 265.418C312.82 264.779 313.26 264.28 313.825 263.922C314.393 263.563 315.057 263.384 315.817 263.384C316.279 263.384 316.726 263.46 317.159 263.613C317.593 263.765 317.982 264.005 318.326 264.332C318.67 264.658 318.942 265.083 319.141 265.605C319.34 266.123 319.439 266.754 319.439 267.496V268.06H312.935V266.867H317.879C317.879 266.448 317.793 266.077 317.623 265.754C317.452 265.427 317.213 265.17 316.904 264.982C316.598 264.793 316.24 264.699 315.828 264.699C315.38 264.699 314.99 264.809 314.656 265.029C314.326 265.246 314.07 265.53 313.889 265.882C313.711 266.23 313.623 266.608 313.623 267.016V267.949C313.623 268.495 313.718 268.961 313.91 269.344C314.105 269.728 314.377 270.021 314.725 270.223C315.073 270.422 315.48 270.521 315.945 270.521C316.247 270.521 316.522 270.479 316.771 270.393C317.019 270.305 317.234 270.173 317.415 269.999C317.596 269.825 317.735 269.61 317.831 269.355L319.338 269.626C319.217 270.07 319.001 270.459 318.688 270.793C318.379 271.123 317.99 271.381 317.522 271.565C317.056 271.746 316.526 271.837 315.929 271.837ZM322.799 266.814V271.672H321.206V263.49H322.735V264.822H322.836C323.025 264.388 323.319 264.04 323.721 263.778C324.125 263.515 324.635 263.384 325.249 263.384C325.807 263.384 326.295 263.501 326.714 263.735C327.133 263.966 327.458 264.31 327.689 264.768C327.92 265.227 328.035 265.793 328.035 266.468V271.672H326.443V266.659C326.443 266.066 326.288 265.603 325.979 265.269C325.67 264.932 325.246 264.763 324.706 264.763C324.337 264.763 324.008 264.843 323.721 265.003C323.437 265.163 323.211 265.397 323.044 265.706C322.881 266.011 322.799 266.381 322.799 266.814ZM333.234 271.832C332.574 271.832 331.984 271.663 331.466 271.326C330.951 270.985 330.546 270.5 330.251 269.871C329.96 269.239 329.814 268.481 329.814 267.597C329.814 266.713 329.962 265.956 330.256 265.328C330.555 264.699 330.963 264.218 331.482 263.884C332 263.55 332.588 263.384 333.245 263.384C333.753 263.384 334.161 263.469 334.47 263.639C334.782 263.806 335.024 264.001 335.194 264.225C335.368 264.449 335.503 264.646 335.599 264.816H335.695V260.763H337.288V271.672H335.732V270.399H335.599C335.503 270.573 335.365 270.772 335.184 270.995C335.006 271.219 334.761 271.414 334.449 271.581C334.136 271.748 333.731 271.832 333.234 271.832ZM333.586 270.473C334.044 270.473 334.431 270.353 334.747 270.111C335.066 269.866 335.308 269.527 335.471 269.094C335.638 268.661 335.722 268.156 335.722 267.581C335.722 267.013 335.64 266.516 335.477 266.089C335.313 265.663 335.074 265.331 334.758 265.093C334.441 264.855 334.051 264.737 333.586 264.737C333.106 264.737 332.707 264.861 332.387 265.109C332.068 265.358 331.826 265.697 331.663 266.127C331.503 266.556 331.423 267.041 331.423 267.581C331.423 268.128 331.505 268.62 331.668 269.056C331.831 269.493 332.073 269.839 332.392 270.095C332.716 270.347 333.113 270.473 333.586 270.473ZM114.452 291.853C113.933 291.853 113.464 291.757 113.045 291.565C112.626 291.37 112.294 291.088 112.049 290.718C111.808 290.349 111.687 289.896 111.687 289.36C111.687 288.898 111.776 288.518 111.953 288.22C112.131 287.922 112.371 287.686 112.673 287.512C112.974 287.338 113.312 287.206 113.685 287.118C114.058 287.029 114.438 286.961 114.825 286.915C115.315 286.858 115.712 286.812 116.018 286.777C116.323 286.738 116.545 286.675 116.684 286.59C116.822 286.505 116.891 286.366 116.891 286.175V286.137C116.891 285.672 116.76 285.312 116.497 285.056C116.238 284.8 115.851 284.673 115.336 284.673C114.8 284.673 114.377 284.792 114.068 285.029C113.763 285.264 113.551 285.525 113.434 285.812L111.938 285.472C112.115 284.974 112.374 284.573 112.715 284.268C113.06 283.959 113.456 283.735 113.903 283.597C114.35 283.455 114.821 283.384 115.315 283.384C115.641 283.384 115.988 283.423 116.353 283.501C116.723 283.575 117.067 283.714 117.387 283.916C117.71 284.119 117.974 284.408 118.18 284.784C118.386 285.157 118.489 285.642 118.489 286.239V291.672H116.934V290.553H116.87C116.767 290.759 116.613 290.962 116.407 291.161C116.201 291.359 115.936 291.525 115.613 291.656C115.29 291.787 114.903 291.853 114.452 291.853ZM114.798 290.575C115.238 290.575 115.615 290.488 115.927 290.314C116.243 290.14 116.483 289.912 116.646 289.632C116.813 289.348 116.897 289.044 116.897 288.721V287.666C116.84 287.723 116.73 287.776 116.566 287.826C116.407 287.872 116.224 287.913 116.018 287.949C115.812 287.98 115.611 288.011 115.416 288.039C115.221 288.064 115.057 288.085 114.926 288.103C114.617 288.142 114.335 288.208 114.079 288.3C113.827 288.392 113.624 288.526 113.472 288.7C113.322 288.87 113.248 289.097 113.248 289.381C113.248 289.776 113.393 290.074 113.685 290.276C113.976 290.475 114.347 290.575 114.798 290.575ZM122.203 280.763V291.672H120.611V280.763H122.203ZM124.346 291.672V283.49H125.939V291.672H124.346ZM125.15 282.228C124.873 282.228 124.635 282.135 124.437 281.951C124.241 281.762 124.144 281.539 124.144 281.279C124.144 281.017 124.241 280.793 124.437 280.608C124.635 280.42 124.873 280.326 125.15 280.326C125.427 280.326 125.664 280.42 125.859 280.608C126.058 280.793 126.157 281.017 126.157 281.279C126.157 281.539 126.058 281.762 125.859 281.951C125.664 282.135 125.427 282.228 125.15 282.228ZM133.605 294.74V290.399H133.509C133.413 290.573 133.275 290.772 133.094 290.995C132.916 291.219 132.671 291.414 132.359 291.581C132.046 291.748 131.641 291.832 131.144 291.832C130.484 291.832 129.894 291.663 129.376 291.326C128.861 290.985 128.456 290.5 128.161 289.871C127.87 289.239 127.725 288.481 127.725 287.597C127.725 286.713 127.872 285.956 128.167 285.328C128.465 284.699 128.873 284.218 129.392 283.884C129.91 283.55 130.498 283.384 131.155 283.384C131.663 283.384 132.071 283.469 132.38 283.639C132.693 283.806 132.934 284.001 133.104 284.225C133.278 284.449 133.413 284.646 133.509 284.816H133.642V283.49H135.198V294.74H133.605ZM131.496 290.473C131.954 290.473 132.341 290.353 132.657 290.111C132.977 289.866 133.218 289.527 133.381 289.094C133.548 288.661 133.632 288.156 133.632 287.581C133.632 287.013 133.55 286.516 133.387 286.089C133.223 285.663 132.984 285.331 132.668 285.093C132.352 284.855 131.961 284.737 131.496 284.737C131.016 284.737 130.617 284.861 130.297 285.109C129.978 285.358 129.736 285.697 129.573 286.127C129.413 286.556 129.333 287.041 129.333 287.581C129.333 288.128 129.415 288.62 129.578 289.056C129.742 289.493 129.983 289.839 130.303 290.095C130.626 290.347 131.024 290.473 131.496 290.473ZM142.522 288.279V283.49H144.12V291.672H142.554V290.255H142.469C142.281 290.692 141.979 291.056 141.563 291.347C141.151 291.635 140.638 291.778 140.024 291.778C139.498 291.778 139.033 291.663 138.628 291.432C138.227 291.198 137.911 290.852 137.68 290.393C137.453 289.935 137.339 289.369 137.339 288.694V283.49H138.932V288.502C138.932 289.06 139.086 289.504 139.395 289.834C139.704 290.164 140.106 290.33 140.599 290.33C140.897 290.33 141.194 290.255 141.489 290.106C141.787 289.957 142.034 289.731 142.229 289.429C142.428 289.127 142.526 288.744 142.522 288.279ZM149.786 291.837C148.98 291.837 148.286 291.665 147.704 291.32C147.125 290.972 146.677 290.484 146.361 289.855C146.049 289.223 145.893 288.483 145.893 287.634C145.893 286.796 146.049 286.058 146.361 285.418C146.677 284.779 147.118 284.28 147.682 283.922C148.251 283.563 148.915 283.384 149.675 283.384C150.136 283.384 150.584 283.46 151.017 283.613C151.45 283.765 151.839 284.005 152.183 284.332C152.528 284.658 152.8 285.083 152.998 285.605C153.197 286.123 153.297 286.754 153.297 287.496V288.06H146.793V286.867H151.736C151.736 286.448 151.651 286.077 151.48 285.754C151.31 285.427 151.07 285.17 150.761 284.982C150.456 284.793 150.097 284.699 149.685 284.699C149.238 284.699 148.847 284.809 148.513 285.029C148.183 285.246 147.927 285.53 147.746 285.882C147.569 286.23 147.48 286.608 147.48 287.016V287.949C147.48 288.495 147.576 288.961 147.768 289.344C147.963 289.728 148.235 290.021 148.583 290.223C148.931 290.422 149.337 290.521 149.802 290.521C150.104 290.521 150.379 290.479 150.628 290.393C150.877 290.305 151.091 290.173 151.273 289.999C151.454 289.825 151.592 289.61 151.688 289.355L153.195 289.626C153.075 290.07 152.858 290.459 152.546 290.793C152.237 291.123 151.848 291.381 151.379 291.565C150.914 291.746 150.383 291.837 149.786 291.837ZM158.883 283.49V284.768H154.414V283.49H158.883ZM155.612 281.53H157.205V289.27C157.205 289.578 157.251 289.811 157.344 289.967C157.436 290.12 157.555 290.225 157.701 290.282C157.85 290.335 158.011 290.362 158.185 290.362C158.313 290.362 158.425 290.353 158.521 290.335C158.617 290.317 158.691 290.303 158.745 290.292L159.032 291.608C158.94 291.643 158.809 291.679 158.638 291.714C158.468 291.754 158.255 291.775 157.999 291.778C157.58 291.786 157.189 291.711 156.827 291.555C156.465 291.398 156.172 291.157 155.948 290.83C155.724 290.504 155.612 290.093 155.612 289.6V281.53ZM166.207 286.814V291.672H164.615V283.49H166.143V284.822H166.245C166.433 284.388 166.728 284.04 167.129 283.778C167.534 283.515 168.043 283.384 168.658 283.384C169.215 283.384 169.703 283.501 170.122 283.735C170.541 283.966 170.866 284.31 171.097 284.768C171.328 285.227 171.443 285.793 171.443 286.468V291.672H169.851V286.659C169.851 286.066 169.696 285.603 169.387 285.269C169.078 284.932 168.654 284.763 168.114 284.763C167.745 284.763 167.416 284.843 167.129 285.003C166.845 285.163 166.619 285.397 166.452 285.706C166.289 286.011 166.207 286.381 166.207 286.814ZM178.762 288.279V283.49H180.36V291.672H178.794V290.255H178.709C178.521 290.692 178.219 291.056 177.804 291.347C177.392 291.635 176.878 291.778 176.264 291.778C175.739 291.778 175.273 291.663 174.869 291.432C174.467 291.198 174.151 290.852 173.92 290.393C173.693 289.935 173.579 289.369 173.579 288.694V283.49H175.172V288.502C175.172 289.06 175.327 289.504 175.636 289.834C175.945 290.164 176.346 290.33 176.839 290.33C177.138 290.33 177.434 290.255 177.729 290.106C178.027 289.957 178.274 289.731 178.469 289.429C178.668 289.127 178.766 288.744 178.762 288.279ZM184.093 280.763V291.672H182.5V280.763H184.093ZM187.828 280.763V291.672H186.236V280.763H187.828ZM192.352 291.853C191.834 291.853 191.365 291.757 190.946 291.565C190.527 291.37 190.195 291.088 189.95 290.718C189.708 290.349 189.588 289.896 189.588 289.36C189.588 288.898 189.676 288.518 189.854 288.22C190.031 287.922 190.271 287.686 190.573 287.512C190.875 287.338 191.212 287.206 191.585 287.118C191.958 287.029 192.338 286.961 192.725 286.915C193.215 286.858 193.613 286.812 193.918 286.777C194.224 286.738 194.445 286.675 194.584 286.59C194.722 286.505 194.792 286.366 194.792 286.175V286.137C194.792 285.672 194.66 285.312 194.398 285.056C194.138 284.8 193.751 284.673 193.236 284.673C192.7 284.673 192.278 284.792 191.969 285.029C191.663 285.264 191.452 285.525 191.335 285.812L189.838 285.472C190.015 284.974 190.275 284.573 190.616 284.268C190.96 283.959 191.356 283.735 191.803 283.597C192.251 283.455 192.721 283.384 193.215 283.384C193.542 283.384 193.888 283.423 194.254 283.501C194.623 283.575 194.968 283.714 195.287 283.916C195.61 284.119 195.875 284.408 196.081 284.784C196.287 285.157 196.39 285.642 196.39 286.239V291.672H194.834V290.553H194.77C194.667 290.759 194.513 290.962 194.307 291.161C194.101 291.359 193.836 291.525 193.513 291.656C193.19 291.787 192.803 291.853 192.352 291.853ZM192.698 290.575C193.139 290.575 193.515 290.488 193.828 290.314C194.144 290.14 194.383 289.912 194.547 289.632C194.714 289.348 194.797 289.044 194.797 288.721V287.666C194.74 287.723 194.63 287.776 194.467 287.826C194.307 287.872 194.124 287.913 193.918 287.949C193.712 287.98 193.512 288.011 193.316 288.039C193.121 288.064 192.958 288.085 192.826 288.103C192.517 288.142 192.235 288.208 191.979 288.3C191.727 288.392 191.525 288.526 191.372 288.7C191.223 288.87 191.148 289.097 191.148 289.381C191.148 289.776 191.294 290.074 191.585 290.276C191.876 290.475 192.247 290.575 192.698 290.575ZM198.511 291.672V283.49H200.04V284.822H200.141C200.312 284.371 200.59 284.019 200.977 283.767C201.364 283.511 201.828 283.384 202.368 283.384C202.915 283.384 203.373 283.511 203.742 283.767C204.115 284.023 204.39 284.374 204.568 284.822H204.653C204.848 284.385 205.159 284.037 205.585 283.778C206.011 283.515 206.519 283.384 207.108 283.384C207.851 283.384 208.456 283.616 208.925 284.081C209.397 284.547 209.633 285.248 209.633 286.185V291.672H208.041V286.335C208.041 285.781 207.89 285.379 207.588 285.131C207.286 284.882 206.926 284.758 206.506 284.758C205.988 284.758 205.585 284.918 205.297 285.237C205.01 285.553 204.866 285.96 204.866 286.457V291.672H203.278V286.233C203.278 285.789 203.14 285.433 202.863 285.163C202.586 284.893 202.226 284.758 201.782 284.758C201.48 284.758 201.201 284.838 200.945 284.998C200.693 285.154 200.489 285.372 200.333 285.653C200.18 285.933 200.104 286.258 200.104 286.627V291.672H198.511ZM217.33 286.814V291.672H215.738V283.49H217.266V284.822H217.368C217.556 284.388 217.851 284.04 218.252 283.778C218.657 283.515 219.166 283.384 219.781 283.384C220.338 283.384 220.826 283.501 221.245 283.735C221.665 283.966 221.989 284.31 222.22 284.768C222.451 285.227 222.566 285.793 222.566 286.468V291.672H220.974V286.659C220.974 286.066 220.819 285.603 220.51 285.269C220.201 284.932 219.777 284.763 219.237 284.763C218.868 284.763 218.54 284.843 218.252 285.003C217.968 285.163 217.742 285.397 217.575 285.706C217.412 286.011 217.33 286.381 217.33 286.814ZM228.229 291.837C227.423 291.837 226.728 291.665 226.146 291.32C225.567 290.972 225.12 290.484 224.804 289.855C224.491 289.223 224.335 288.483 224.335 287.634C224.335 286.796 224.491 286.058 224.804 285.418C225.12 284.779 225.56 284.28 226.125 283.922C226.693 283.563 227.357 283.384 228.117 283.384C228.579 283.384 229.026 283.46 229.459 283.613C229.892 283.765 230.281 284.005 230.626 284.332C230.97 284.658 231.242 285.083 231.441 285.605C231.64 286.123 231.739 286.754 231.739 287.496V288.06H225.235V286.867H230.178C230.178 286.448 230.093 286.077 229.923 285.754C229.752 285.427 229.513 285.17 229.204 284.982C228.898 284.793 228.54 284.699 228.128 284.699C227.68 284.699 227.29 284.809 226.956 285.029C226.625 285.246 226.37 285.53 226.189 285.882C226.011 286.23 225.922 286.608 225.922 287.016V287.949C225.922 288.495 226.018 288.961 226.21 289.344C226.405 289.728 226.677 290.021 227.025 290.223C227.373 290.422 227.78 290.521 228.245 290.521C228.547 290.521 228.822 290.479 229.07 290.393C229.319 290.305 229.534 290.173 229.715 289.999C229.896 289.825 230.035 289.61 230.13 289.355L231.638 289.626C231.517 290.07 231.301 290.459 230.988 290.793C230.679 291.123 230.29 291.381 229.821 291.565C229.356 291.746 228.825 291.837 228.229 291.837ZM236.953 291.837C236.161 291.837 235.479 291.658 234.907 291.299C234.339 290.937 233.902 290.438 233.597 289.802C233.291 289.167 233.139 288.439 233.139 287.618C233.139 286.787 233.295 286.054 233.607 285.418C233.92 284.779 234.36 284.28 234.928 283.922C235.497 283.563 236.166 283.384 236.937 283.384C237.558 283.384 238.112 283.499 238.599 283.73C239.085 283.957 239.477 284.277 239.776 284.689C240.078 285.1 240.257 285.582 240.314 286.132H238.764C238.678 285.749 238.483 285.418 238.178 285.141C237.876 284.864 237.471 284.726 236.963 284.726C236.519 284.726 236.131 284.843 235.797 285.077C235.466 285.308 235.209 285.638 235.024 286.068C234.84 286.494 234.747 286.999 234.747 287.581C234.747 288.178 234.838 288.692 235.019 289.126C235.2 289.559 235.456 289.895 235.786 290.132C236.12 290.37 236.512 290.489 236.963 290.489C237.265 290.489 237.539 290.434 237.784 290.324C238.032 290.211 238.24 290.049 238.407 289.839C238.577 289.63 238.696 289.378 238.764 289.083H240.314C240.257 289.612 240.085 290.085 239.797 290.5C239.509 290.915 239.124 291.242 238.641 291.48C238.162 291.718 237.599 291.837 236.953 291.837ZM252.118 285.488L250.674 285.743C250.614 285.559 250.518 285.383 250.387 285.216C250.259 285.049 250.085 284.912 249.865 284.806C249.644 284.699 249.369 284.646 249.039 284.646C248.588 284.646 248.211 284.747 247.91 284.95C247.608 285.148 247.457 285.406 247.457 285.722C247.457 285.995 247.558 286.216 247.76 286.382C247.963 286.549 248.29 286.686 248.741 286.793L250.04 287.091C250.793 287.265 251.354 287.533 251.724 287.895C252.093 288.257 252.278 288.728 252.278 289.307C252.278 289.797 252.135 290.234 251.851 290.617C251.571 290.997 251.178 291.295 250.674 291.512C250.173 291.729 249.593 291.837 248.932 291.837C248.016 291.837 247.269 291.642 246.69 291.251C246.111 290.857 245.756 290.298 245.624 289.573L247.164 289.339C247.26 289.74 247.457 290.044 247.755 290.25C248.053 290.452 248.442 290.553 248.922 290.553C249.444 290.553 249.861 290.445 250.173 290.228C250.486 290.008 250.642 289.74 250.642 289.424C250.642 289.168 250.546 288.953 250.355 288.779C250.166 288.605 249.877 288.474 249.486 288.385L248.101 288.082C247.338 287.908 246.773 287.631 246.407 287.251C246.045 286.871 245.864 286.39 245.864 285.807C245.864 285.324 245.999 284.902 246.269 284.539C246.539 284.177 246.912 283.895 247.388 283.692C247.863 283.487 248.409 283.384 249.023 283.384C249.907 283.384 250.603 283.575 251.111 283.959C251.619 284.339 251.954 284.848 252.118 285.488ZM254.029 291.672V283.49H255.621V291.672H254.029ZM254.833 282.228C254.556 282.228 254.318 282.135 254.119 281.951C253.924 281.762 253.826 281.539 253.826 281.279C253.826 281.017 253.924 280.793 254.119 280.608C254.318 280.42 254.556 280.326 254.833 280.326C255.11 280.326 255.346 280.42 255.541 280.608C255.74 280.793 255.84 281.017 255.84 281.279C255.84 281.539 255.74 281.762 255.541 281.951C255.346 282.135 255.11 282.228 254.833 282.228ZM261.583 283.49V284.768H257.114V283.49H261.583ZM258.313 281.53H259.905V289.27C259.905 289.578 259.952 289.811 260.044 289.967C260.136 290.12 260.255 290.225 260.401 290.282C260.55 290.335 260.711 290.362 260.885 290.362C261.013 290.362 261.125 290.353 261.221 290.335C261.317 290.317 261.392 290.303 261.445 290.292L261.732 291.608C261.64 291.643 261.509 291.679 261.338 291.714C261.168 291.754 260.955 291.775 260.699 291.778C260.28 291.786 259.889 291.711 259.527 291.555C259.165 291.398 258.872 291.157 258.648 290.83C258.425 290.504 258.313 290.093 258.313 289.6V281.53ZM270.745 294.911C270.095 294.911 269.536 294.825 269.067 294.655C268.602 294.484 268.222 294.259 267.927 293.978C267.633 293.698 267.412 293.391 267.267 293.057L268.636 292.492C268.732 292.648 268.86 292.814 269.019 292.988C269.183 293.165 269.403 293.316 269.68 293.44C269.96 293.565 270.321 293.627 270.761 293.627C271.365 293.627 271.864 293.479 272.258 293.185C272.652 292.893 272.849 292.428 272.849 291.789V290.18H272.748C272.652 290.354 272.514 290.548 272.333 290.761C272.155 290.974 271.91 291.159 271.597 291.315C271.285 291.471 270.878 291.549 270.378 291.549C269.731 291.549 269.149 291.398 268.631 291.097C268.116 290.791 267.707 290.342 267.405 289.749C267.107 289.152 266.958 288.419 266.958 287.549C266.958 286.679 267.105 285.933 267.4 285.312C267.698 284.69 268.107 284.214 268.625 283.884C269.144 283.55 269.731 283.384 270.388 283.384C270.896 283.384 271.306 283.469 271.619 283.639C271.931 283.806 272.175 284.001 272.349 284.225C272.526 284.449 272.663 284.646 272.759 284.816H272.876V283.49H274.437V291.853C274.437 292.556 274.273 293.133 273.947 293.584C273.62 294.035 273.178 294.369 272.62 294.586C272.066 294.802 271.441 294.911 270.745 294.911ZM270.729 290.228C271.187 290.228 271.574 290.122 271.89 289.909C272.21 289.692 272.452 289.383 272.615 288.982C272.782 288.577 272.865 288.092 272.865 287.528C272.865 286.977 272.784 286.493 272.62 286.074C272.457 285.654 272.217 285.328 271.901 285.093C271.585 284.855 271.194 284.737 270.729 284.737C270.25 284.737 269.85 284.861 269.531 285.109C269.211 285.354 268.97 285.688 268.806 286.111C268.646 286.533 268.567 287.006 268.567 287.528C268.567 288.064 268.648 288.534 268.812 288.939C268.975 289.344 269.216 289.66 269.536 289.887C269.859 290.115 270.257 290.228 270.729 290.228ZM276.573 291.672V283.49H278.112V284.79H278.197C278.346 284.349 278.609 284.003 278.986 283.751C279.366 283.495 279.795 283.368 280.275 283.368C280.374 283.368 280.491 283.371 280.626 283.378C280.765 283.385 280.873 283.394 280.951 283.405V284.928C280.887 284.911 280.774 284.891 280.61 284.87C280.447 284.845 280.284 284.832 280.12 284.832C279.744 284.832 279.408 284.912 279.113 285.072C278.822 285.228 278.591 285.447 278.421 285.727C278.251 286.004 278.165 286.32 278.165 286.675V291.672H276.573ZM284.637 291.853C284.119 291.853 283.65 291.757 283.231 291.565C282.812 291.37 282.48 291.088 282.235 290.718C281.993 290.349 281.873 289.896 281.873 289.36C281.873 288.898 281.961 288.518 282.139 288.22C282.317 287.922 282.556 287.686 282.858 287.512C283.16 287.338 283.497 287.206 283.87 287.118C284.243 287.029 284.623 286.961 285.01 286.915C285.5 286.858 285.898 286.812 286.203 286.777C286.509 286.738 286.731 286.675 286.869 286.59C287.008 286.505 287.077 286.366 287.077 286.175V286.137C287.077 285.672 286.945 285.312 286.683 285.056C286.423 284.8 286.036 284.673 285.521 284.673C284.985 284.673 284.563 284.792 284.254 285.029C283.948 285.264 283.737 285.525 283.62 285.812L282.123 285.472C282.301 284.974 282.56 284.573 282.901 284.268C283.245 283.959 283.641 283.735 284.089 283.597C284.536 283.455 285.007 283.384 285.5 283.384C285.827 283.384 286.173 283.423 286.539 283.501C286.908 283.575 287.253 283.714 287.572 283.916C287.895 284.119 288.16 284.408 288.366 284.784C288.572 285.157 288.675 285.642 288.675 286.239V291.672H287.119V290.553H287.056C286.953 290.759 286.798 290.962 286.592 291.161C286.386 291.359 286.122 291.525 285.798 291.656C285.475 291.787 285.088 291.853 284.637 291.853ZM284.983 290.575C285.424 290.575 285.8 290.488 286.113 290.314C286.429 290.14 286.669 289.912 286.832 289.632C286.999 289.348 287.082 289.044 287.082 288.721V287.666C287.025 287.723 286.915 287.776 286.752 287.826C286.592 287.872 286.409 287.913 286.203 287.949C285.997 287.98 285.797 288.011 285.601 288.039C285.406 288.064 285.243 288.085 285.111 288.103C284.802 288.142 284.52 288.208 284.264 288.3C284.012 288.392 283.81 288.526 283.657 288.7C283.508 288.87 283.433 289.097 283.433 289.381C283.433 289.776 283.579 290.074 283.87 290.276C284.161 290.475 284.532 290.575 284.983 290.575ZM297.503 283.49L294.536 291.672H292.831L289.859 283.49H291.569L293.641 289.786H293.726L295.793 283.49H297.503ZM298.999 291.672V283.49H300.592V291.672H298.999ZM299.804 282.228C299.527 282.228 299.289 282.135 299.09 281.951C298.895 281.762 298.797 281.539 298.797 281.279C298.797 281.017 298.895 280.793 299.09 280.608C299.289 280.42 299.527 280.326 299.804 280.326C300.081 280.326 300.317 280.42 300.512 280.608C300.711 280.793 300.81 281.017 300.81 281.279C300.81 281.539 300.711 281.762 300.512 281.951C300.317 282.135 300.081 282.228 299.804 282.228ZM305.798 291.832C305.137 291.832 304.548 291.663 304.029 291.326C303.514 290.985 303.109 290.5 302.815 289.871C302.523 289.239 302.378 288.481 302.378 287.597C302.378 286.713 302.525 285.956 302.82 285.328C303.118 284.699 303.527 284.218 304.045 283.884C304.564 283.55 305.151 283.384 305.808 283.384C306.316 283.384 306.724 283.469 307.033 283.639C307.346 283.806 307.587 284.001 307.758 284.225C307.932 284.449 308.067 284.646 308.163 284.816H308.259V280.763H309.851V291.672H308.296V290.399H308.163C308.067 290.573 307.928 290.772 307.747 290.995C307.57 291.219 307.325 291.414 307.012 291.581C306.7 291.748 306.295 291.832 305.798 291.832ZM306.149 290.473C306.607 290.473 306.994 290.353 307.31 290.111C307.63 289.866 307.871 289.527 308.035 289.094C308.202 288.661 308.285 288.156 308.285 287.581C308.285 287.013 308.203 286.516 308.04 286.089C307.877 285.663 307.637 285.331 307.321 285.093C307.005 284.855 306.614 284.737 306.149 284.737C305.67 284.737 305.27 284.861 304.951 285.109C304.631 285.358 304.39 285.697 304.226 286.127C304.066 286.556 303.987 287.041 303.987 287.581C303.987 288.128 304.068 288.62 304.232 289.056C304.395 289.493 304.636 289.839 304.956 290.095C305.279 290.347 305.677 290.473 306.149 290.473ZM314.505 291.853C313.987 291.853 313.518 291.757 313.099 291.565C312.68 291.37 312.348 291.088 312.103 290.718C311.862 290.349 311.741 289.896 311.741 289.36C311.741 288.898 311.83 288.518 312.007 288.22C312.185 287.922 312.424 287.686 312.726 287.512C313.028 287.338 313.366 287.206 313.738 287.118C314.111 287.029 314.491 286.961 314.878 286.915C315.368 286.858 315.766 286.812 316.071 286.777C316.377 286.738 316.599 286.675 316.737 286.59C316.876 286.505 316.945 286.366 316.945 286.175V286.137C316.945 285.672 316.814 285.312 316.551 285.056C316.292 284.8 315.905 284.673 315.39 284.673C314.853 284.673 314.431 284.792 314.122 285.029C313.816 285.264 313.605 285.525 313.488 285.812L311.991 285.472C312.169 284.974 312.428 284.573 312.769 284.268C313.113 283.959 313.509 283.735 313.957 283.597C314.404 283.455 314.875 283.384 315.368 283.384C315.695 283.384 316.041 283.423 316.407 283.501C316.776 283.575 317.121 283.714 317.44 283.916C317.764 284.119 318.028 284.408 318.234 284.784C318.44 285.157 318.543 285.642 318.543 286.239V291.672H316.988V290.553H316.924C316.821 290.759 316.666 290.962 316.46 291.161C316.254 291.359 315.99 291.525 315.667 291.656C315.343 291.787 314.956 291.853 314.505 291.853ZM314.852 290.575C315.292 290.575 315.668 290.488 315.981 290.314C316.297 290.14 316.537 289.912 316.7 289.632C316.867 289.348 316.95 289.044 316.95 288.721V287.666C316.894 287.723 316.783 287.776 316.62 287.826C316.46 287.872 316.277 287.913 316.071 287.949C315.866 287.98 315.665 288.011 315.47 288.039C315.274 288.064 315.111 288.085 314.979 288.103C314.671 288.142 314.388 288.208 314.133 288.3C313.88 288.392 313.678 288.526 313.525 288.7C313.376 288.87 313.302 289.097 313.302 289.381C313.302 289.776 313.447 290.074 313.738 290.276C314.03 290.475 314.401 290.575 314.852 290.575ZM327.015 291.853C326.497 291.853 326.028 291.757 325.609 291.565C325.19 291.37 324.858 291.088 324.613 290.718C324.371 290.349 324.251 289.896 324.251 289.36C324.251 288.898 324.339 288.518 324.517 288.22C324.695 287.922 324.934 287.686 325.236 287.512C325.538 287.338 325.875 287.206 326.248 287.118C326.621 287.029 327.001 286.961 327.388 286.915C327.878 286.858 328.276 286.812 328.581 286.777C328.887 286.738 329.109 286.675 329.247 286.59C329.386 286.505 329.455 286.366 329.455 286.175V286.137C329.455 285.672 329.323 285.312 329.061 285.056C328.801 284.8 328.414 284.673 327.899 284.673C327.363 284.673 326.941 284.792 326.632 285.029C326.326 285.264 326.115 285.525 325.998 285.812L324.501 285.472C324.679 284.974 324.938 284.573 325.279 284.268C325.623 283.959 326.019 283.735 326.467 283.597C326.914 283.455 327.384 283.384 327.878 283.384C328.205 283.384 328.551 283.423 328.917 283.501C329.286 283.575 329.631 283.714 329.95 283.916C330.273 284.119 330.538 284.408 330.744 284.784C330.95 285.157 331.053 285.642 331.053 286.239V291.672H329.497V290.553H329.434C329.331 290.759 329.176 290.962 328.97 291.161C328.764 291.359 328.5 291.525 328.176 291.656C327.853 291.787 327.466 291.853 327.015 291.853ZM327.361 290.575C327.802 290.575 328.178 290.488 328.491 290.314C328.807 290.14 329.046 289.912 329.21 289.632C329.377 289.348 329.46 289.044 329.46 288.721V287.666C329.403 287.723 329.293 287.776 329.13 287.826C328.97 287.872 328.787 287.913 328.581 287.949C328.375 287.98 328.175 288.011 327.979 288.039C327.784 288.064 327.621 288.085 327.489 288.103C327.18 288.142 326.898 288.208 326.642 288.3C326.39 288.392 326.188 288.526 326.035 288.7C325.886 288.87 325.811 289.097 325.811 289.381C325.811 289.776 325.957 290.074 326.248 290.276C326.539 290.475 326.91 290.575 327.361 290.575ZM336.621 291.837C335.829 291.837 335.147 291.658 334.575 291.299C334.007 290.937 333.57 290.438 333.265 289.802C332.959 289.167 332.807 288.439 332.807 287.618C332.807 286.787 332.963 286.054 333.275 285.418C333.588 284.779 334.028 284.28 334.596 283.922C335.165 283.563 335.834 283.384 336.605 283.384C337.226 283.384 337.78 283.499 338.267 283.73C338.753 283.957 339.145 284.277 339.444 284.689C339.746 285.1 339.925 285.582 339.982 286.132H338.432C338.346 285.749 338.151 285.418 337.846 285.141C337.544 284.864 337.139 284.726 336.631 284.726C336.187 284.726 335.798 284.843 335.465 285.077C335.134 285.308 334.877 285.638 334.692 286.068C334.508 286.494 334.415 286.999 334.415 287.581C334.415 288.178 334.506 288.692 334.687 289.126C334.868 289.559 335.124 289.895 335.454 290.132C335.788 290.37 336.18 290.489 336.631 290.489C336.933 290.489 337.206 290.434 337.452 290.324C337.7 290.211 337.908 290.049 338.075 289.839C338.245 289.63 338.364 289.378 338.432 289.083H339.982C339.925 289.612 339.753 290.085 339.465 290.5C339.177 290.915 338.792 291.242 338.309 291.48C337.83 291.718 337.267 291.837 336.621 291.837Z" fill="#151531" fill-opacity="0.8"/>
</g>
<defs>
<filter id="filter0_d_2316_510" x="0" y="0.078125" width="500" height="418.984" filterUnits="userSpaceOnUse" color-interpolation-filters="sRGB">
<feFlood flood-opacity="0" result="BackgroundImageFix"/>
<feColorMatrix in="SourceAlpha" type="matrix" values="0 0 0 0 0 0 0 0 0 0 0 0 0 0 0 0 0 0 127 0" result="hardAlpha"/>
<feOffset dx="1" dy="1"/>
<feGaussianBlur stdDeviation="40"/>
<feComposite in2="hardAlpha" operator="out"/>
<feColorMatrix type="matrix" values="0 0 0 0 0.0823529 0 0 0 0 0.0823529 0 0 0 0 0.192157 0 0 0 0.05 0"/>
<feBlend mode="normal" in2="BackgroundImageFix" result="effect1_dropShadow_2316_510"/>
<feBlend mode="normal" in="SourceGraphic" in2="effect1_dropShadow_2316_510" result="shape"/>
</filter>
<clipPath id="clip0_2316_510">
<rect width="56" height="56" fill="white" transform="translate(111 119.078)"/>
</clipPath>
</defs>
</svg>
